<?xml version="1.0" encoding="UTF-8" standalone="no"?>
<!DOCTYPE svg PUBLIC "-//W3C//DTD SVG 1.1//EN"
 "http://www.w3.org/Graphics/SVG/1.1/DTD/svg11.dtd">
<!-- Generated by graphviz version 2.43.0 (0)
 -->
<!-- Title: ER Pages: 1 -->
<svg width="700pt" height="712pt"
 viewBox="0.00 0.00 699.73 711.77" xmlns="http://www.w3.org/2000/svg" xmlns:xlink="http://www.w3.org/1999/xlink">
<g id="graph0" class="graph" transform="scale(1 1) rotate(0) translate(4 707.77)">
<title>ER</title>
<polygon fill="white" stroke="transparent" points="-4,4 -4,-707.77 695.73,-707.77 695.73,4 -4,4"/>
<text text-anchor="middle" x="345.87" y="-22.8" font-family="Times,serif" font-size="14.00">USER DATABASE</text>
<text text-anchor="middle" x="345.87" y="-7.8" font-family="Times,serif" font-size="14.00">Collaborative Measurement Network</text>
<!-- types -->
<g id="node1" class="node">
<title>types</title>
<polygon fill="none" stroke="black" points="215.27,-586.09 159.27,-586.09 159.27,-550.09 215.27,-550.09 215.27,-586.09"/>
<text text-anchor="middle" x="187.27" y="-564.39" font-family="Times,serif" font-size="14.00">types</text>
</g>
<!-- references -->
<g id="node13" class="node">
<title>references</title>
<polygon fill="lightgrey" stroke="lightgrey" points="220.82,-443.03 136.2,-425.03 220.82,-407.03 305.45,-425.03 220.82,-443.03"/>
<text text-anchor="middle" x="220.82" y="-421.33" font-family="Times,serif" font-size="14.00">references</text>
</g>
<!-- types&#45;&#45;references -->
<g id="edge10" class="edge">
<title>types&#45;&#45;references</title>
<path fill="none" stroke="black" d="M191.52,-549.97C198.01,-522.3 210.31,-469.86 216.71,-442.55"/>
<text text-anchor="middle" x="199.11" y="-500.06" font-family="Times,serif" font-size="14.00">1</text>
</g>
<!-- values -->
<g id="node2" class="node">
<title>values</title>
<polygon fill="none" stroke="black" points="242.99,-286.42 180.99,-286.42 180.99,-250.42 242.99,-250.42 242.99,-286.42"/>
<text text-anchor="middle" x="211.99" y="-264.72" font-family="Times,serif" font-size="14.00">values</text>
</g>
<!-- values&#45;&#45;references -->
<g id="edge11" class="edge">
<title>values&#45;&#45;references</title>
<path fill="none" stroke="black" d="M213.02,-286.69C214.72,-316.87 218.1,-376.77 219.8,-406.87"/>
<text text-anchor="middle" x="211.41" y="-350.58" font-family="Times,serif" font-size="14.00">n</text>
</g>
<!-- gathers -->
<g id="node14" class="node">
<title>gathers</title>
<polygon fill="lightgrey" stroke="lightgrey" points="370.83,-283.54 305.81,-265.54 370.83,-247.54 435.86,-265.54 370.83,-283.54"/>
<text text-anchor="middle" x="370.83" y="-261.84" font-family="Times,serif" font-size="14.00">gathers</text>
</g>
<!-- values&#45;&#45;gathers -->
<g id="edge13" class="edge">
<title>values&#45;&#45;gathers</title>
<path fill="none" stroke="black" d="M243,-267.86C261.96,-267.52 286.87,-267.06 309.66,-266.65"/>
<text text-anchor="middle" x="271.33" y="-271.06" font-family="Times,serif" font-size="14.00">n</text>
</g>
<!-- gatherers -->
<g id="node3" class="node">
<title>gatherers</title>
<polygon fill="none" stroke="black" points="552.59,-232.35 466.59,-232.35 466.59,-196.35 552.59,-196.35 552.59,-232.35"/>
<text text-anchor="middle" x="509.59" y="-210.65" font-family="Times,serif" font-size="14.00">gatherers</text>
</g>
<!-- gatherers&#45;&#45;gathers -->
<g id="edge12" class="edge">
<title>gatherers&#45;&#45;gathers</title>
<path fill="none" stroke="black" d="M466.45,-230.27C444.49,-238.37 418.42,-247.99 399.05,-255.13"/>
<text text-anchor="middle" x="427.75" y="-231.5" font-family="Times,serif" font-size="14.00">1</text>
</g>
<!-- name0 -->
<g id="node4" class="node">
<title>name0</title>
<ellipse fill="none" stroke="black" cx="69.93" cy="-651.08" rx="36.29" ry="18"/>
<text text-anchor="start" x="49.93" y="-648.38" font-family="Times,serif" text-decoration="underline" font-size="14.00">name</text>
</g>
<!-- name0&#45;&#45;types -->
<g id="edge1" class="edge">
<title>name0&#45;&#45;types</title>
<path fill="none" stroke="black" d="M90.91,-636.24C110.68,-622.25 140.37,-601.26 161.56,-586.27"/>
</g>
<!-- username -->
<g id="node5" class="node">
<title>username</title>
<ellipse fill="none" stroke="black" cx="635.19" cy="-277.4" rx="56.59" ry="18"/>
<text text-anchor="start" x="599.69" y="-274.7" font-family="Times,serif" text-decoration="underline" font-size="14.00">username</text>
</g>
<!-- username&#45;&#45;gatherers -->
<g id="edge7" class="edge">
<title>username&#45;&#45;gatherers</title>
<path fill="none" stroke="black" d="M604.78,-262.14C586.92,-253.17 564.25,-241.79 545.51,-232.38"/>
</g>
<!-- label -->
<g id="node6" class="node">
<title>label</title>
<ellipse fill="none" stroke="black" cx="264.4" cy="-685.77" rx="33.29" ry="18"/>
<text text-anchor="middle" x="264.4" y="-682.07" font-family="Times,serif" font-size="14.00">label</text>
</g>
<!-- label&#45;&#45;types -->
<g id="edge2" class="edge">
<title>label&#45;&#45;types</title>
<path fill="none" stroke="black" d="M253.19,-668.66C238.81,-646.73 214,-608.87 199.26,-586.38"/>
</g>
<!-- comment -->
<g id="node7" class="node">
<title>comment</title>
<ellipse fill="none" stroke="black" cx="102.05" cy="-160.33" rx="53.89" ry="18"/>
<text text-anchor="middle" x="102.05" y="-156.63" font-family="Times,serif" font-size="14.00">comment</text>
</g>
<!-- comment&#45;&#45;values -->
<g id="edge6" class="edge">
<title>comment&#45;&#45;values</title>
<path fill="none" stroke="black" d="M119.72,-177.69C139.99,-197.63 173.08,-230.16 193.64,-250.38"/>
</g>
<!-- content -->
<g id="node8" class="node">
<title>content</title>
<ellipse fill="none" stroke="black" cx="281.36" cy="-164.31" rx="46.29" ry="18"/>
<text text-anchor="middle" x="281.36" y="-160.61" font-family="Times,serif" font-size="14.00">content</text>
</g>
<!-- content&#45;&#45;values -->
<g id="edge3" class="edge">
<title>content&#45;&#45;values</title>
<path fill="none" stroke="black" d="M269.59,-181.97C256.92,-201 236.84,-231.13 224.05,-250.32"/>
</g>
<!-- timestamp -->
<g id="node9" class="node">
<title>timestamp</title>
<ellipse fill="none" stroke="black" cx="60.44" cy="-251.41" rx="60.39" ry="18"/>
<text text-anchor="start" x="21.94" y="-248.71" font-family="Times,serif" text-decoration="underline" font-size="14.00">timestamp</text>
</g>
<!-- timestamp&#45;&#45;values -->
<g id="edge5" class="edge">
<title>timestamp&#45;&#45;values</title>
<path fill="none" stroke="black" d="M117.31,-257.79C138.81,-260.2 162.48,-262.86 180.78,-264.92"/>
</g>
<!-- status -->
<g id="node10" class="node">
<title>status</title>
<ellipse fill="none" stroke="black" cx="579.12" cy="-88" rx="51.99" ry="18"/>
<text text-anchor="middle" x="579.12" y="-84.3" font-family="Times,serif" font-size="14.00">last seen</text>
</g>
<!-- status&#45;&#45;gatherers -->
<g id="edge8" class="edge">
<title>status&#45;&#45;gatherers</title>
<path fill="none" stroke="black" d="M569.31,-105.83C556.13,-129.78 532.84,-172.09 519.58,-196.19"/>
</g>
<!-- is_standard -->
<g id="node11" class="node">
<title>is_standard</title>
<ellipse fill="none" stroke="black" cx="192.16" cy="-116.32" rx="64.19" ry="18"/>
<text text-anchor="middle" x="192.16" y="-112.62" font-family="Times,serif" font-size="14.00">is_standard</text>
</g>
<!-- is_standard&#45;&#45;values -->
<g id="edge4" class="edge">
<title>is_standard&#45;&#45;values</title>
<path fill="none" stroke="black" d="M194.51,-134.37C198.33,-163.64 205.83,-221.14 209.64,-250.4"/>
</g>
<!-- groupID -->
<g id="node12" class="node">
<title>groupID</title>
<ellipse fill="none" stroke="black" cx="105.63" cy="-341.63" rx="48.99" ry="18"/>
<text text-anchor="middle" x="105.63" y="-337.93" font-family="Times,serif" font-size="14.00">groupID</text>
</g>
<!-- groupID&#45;&#45;values -->
<g id="edge9" class="edge">
<title>groupID&#45;&#45;values</title>
<path fill="none" stroke="black" d="M128.71,-325.74C145.45,-314.22 168.12,-298.61 185.59,-286.59"/>
</g>
</g>
</svg>
