<?xml version="1.0" encoding="UTF-8" standalone="no"?>
<!DOCTYPE svg PUBLIC "-//W3C//DTD SVG 1.1//EN"
 "http://www.w3.org/Graphics/SVG/1.1/DTD/svg11.dtd">
<!-- Generated by graphviz version 2.43.0 (0)
 -->
<!-- Title: ER Pages: 1 -->
<svg width="844pt" height="765pt"
 viewBox="0.00 0.00 843.96 765.32" xmlns="http://www.w3.org/2000/svg" xmlns:xlink="http://www.w3.org/1999/xlink">
<g id="graph0" class="graph" transform="scale(1 1) rotate(0) translate(4 761.32)">
<title>ER</title>
<polygon fill="white" stroke="transparent" points="-4,4 -4,-761.32 839.96,-761.32 839.96,4 -4,4"/>
<text text-anchor="middle" x="417.98" y="-22.8" font-family="Times,serif" font-size="14.00">USER DATABASE</text>
<text text-anchor="middle" x="417.98" y="-7.8" font-family="Times,serif" font-size="14.00">Collaborative Measurement Network</text>
<!-- types -->
<g id="node1" class="node">
<title>types</title>
<polygon fill="none" stroke="black" points="219.64,-604.34 163.64,-604.34 163.64,-568.34 219.64,-568.34 219.64,-604.34"/>
<text text-anchor="middle" x="191.64" y="-582.64" font-family="Times,serif" font-size="14.00">types</text>
</g>
<!-- references -->
<g id="node12" class="node">
<title>references</title>
<polygon fill="lightgrey" stroke="lightgrey" points="265.67,-452.95 181.04,-434.95 265.67,-416.95 350.29,-434.95 265.67,-452.95"/>
<text text-anchor="middle" x="265.67" y="-431.25" font-family="Times,serif" font-size="14.00">references</text>
</g>
<!-- types&#45;&#45;references -->
<g id="edge9" class="edge">
<title>types&#45;&#45;references</title>
<path fill="none" stroke="black" d="M200.57,-568.08C215.11,-538.35 243.66,-479.96 257.61,-451.43"/>
<text text-anchor="middle" x="224.09" y="-513.55" font-family="Times,serif" font-size="14.00">1</text>
</g>
<!-- values -->
<g id="node2" class="node">
<title>values</title>
<polygon fill="none" stroke="black" points="335.36,-279.15 273.36,-279.15 273.36,-243.15 335.36,-243.15 335.36,-279.15"/>
<text text-anchor="middle" x="304.36" y="-257.45" font-family="Times,serif" font-size="14.00">values</text>
</g>
<!-- values&#45;&#45;references -->
<g id="edge10" class="edge">
<title>values&#45;&#45;references</title>
<path fill="none" stroke="black" d="M300.29,-279.42C292.78,-313.15 276.84,-384.75 269.51,-417.7"/>
<text text-anchor="middle" x="279.9" y="-352.36" font-family="Times,serif" font-size="14.00">n</text>
</g>
<!-- gathers -->
<g id="node13" class="node">
<title>gathers</title>
<polygon fill="lightgrey" stroke="lightgrey" points="482.65,-300.01 417.63,-282.01 482.65,-264.01 547.67,-282.01 482.65,-300.01"/>
<text text-anchor="middle" x="482.65" y="-278.31" font-family="Times,serif" font-size="14.00">gathers</text>
</g>
<!-- values&#45;&#45;gathers -->
<g id="edge12" class="edge">
<title>values&#45;&#45;gathers</title>
<path fill="none" stroke="black" d="M335.41,-264.79C363.45,-268.06 405.06,-272.93 436.9,-276.66"/>
<text text-anchor="middle" x="381.16" y="-274.52" font-family="Times,serif" font-size="14.00">n</text>
</g>
<!-- gatherers -->
<g id="node3" class="node">
<title>gatherers</title>
<polygon fill="none" stroke="black" points="692.66,-272.23 606.66,-272.23 606.66,-236.23 692.66,-236.23 692.66,-272.23"/>
<text text-anchor="middle" x="649.66" y="-250.53" font-family="Times,serif" font-size="14.00">gatherers</text>
</g>
<!-- gatherers&#45;&#45;gathers -->
<g id="edge11" class="edge">
<title>gatherers&#45;&#45;gathers</title>
<path fill="none" stroke="black" d="M606.65,-261.38C581.04,-265.64 548.72,-271.02 523.5,-275.21"/>
<text text-anchor="middle" x="560.07" y="-272.1" font-family="Times,serif" font-size="14.00">1</text>
</g>
<!-- name0 -->
<g id="node4" class="node">
<title>name0</title>
<ellipse fill="none" stroke="black" cx="36.4" cy="-644.8" rx="36.29" ry="18"/>
<text text-anchor="start" x="16.4" y="-642.1" font-family="Times,serif" text-decoration="underline" font-size="14.00">name</text>
</g>
<!-- name0&#45;&#45;types -->
<g id="edge1" class="edge">
<title>name0&#45;&#45;types</title>
<path fill="none" stroke="black" d="M65.6,-633.81C93.7,-623.22 135.91,-607.33 163.62,-596.89"/>
</g>
<!-- username -->
<g id="node5" class="node">
<title>username</title>
<ellipse fill="none" stroke="black" cx="779.41" cy="-353.15" rx="56.59" ry="18"/>
<text text-anchor="start" x="743.91" y="-350.45" font-family="Times,serif" text-decoration="underline" font-size="14.00">username</text>
</g>
<!-- username&#45;&#45;gatherers -->
<g id="edge7" class="edge">
<title>username&#45;&#45;gatherers</title>
<path fill="none" stroke="black" d="M757.4,-336.37C734.12,-318.62 697.51,-290.71 673.54,-272.43"/>
</g>
<!-- label -->
<g id="node6" class="node">
<title>label</title>
<ellipse fill="none" stroke="black" cx="249.07" cy="-739.32" rx="33.29" ry="18"/>
<text text-anchor="middle" x="249.07" y="-735.62" font-family="Times,serif" font-size="14.00">label</text>
</g>
<!-- label&#45;&#45;types -->
<g id="edge2" class="edge">
<title>label&#45;&#45;types</title>
<path fill="none" stroke="black" d="M242.37,-721.47C231.36,-692.15 209.57,-634.1 198.48,-604.55"/>
</g>
<!-- comment -->
<g id="node7" class="node">
<title>comment</title>
<ellipse fill="none" stroke="black" cx="158.19" cy="-160.18" rx="53.89" ry="18"/>
<text text-anchor="middle" x="158.19" y="-156.48" font-family="Times,serif" font-size="14.00">comment</text>
</g>
<!-- comment&#45;&#45;values -->
<g id="edge6" class="edge">
<title>comment&#45;&#45;values</title>
<path fill="none" stroke="black" d="M181.67,-176.4C208.06,-194.63 250.78,-224.15 278.21,-243.09"/>
</g>
<!-- content -->
<g id="node8" class="node">
<title>content</title>
<ellipse fill="none" stroke="black" cx="381.01" cy="-126.17" rx="46.29" ry="18"/>
<text text-anchor="middle" x="381.01" y="-122.47" font-family="Times,serif" font-size="14.00">content</text>
</g>
<!-- content&#45;&#45;values -->
<g id="edge3" class="edge">
<title>content&#45;&#45;values</title>
<path fill="none" stroke="black" d="M370.99,-143.82C356.38,-169.54 329.37,-217.1 314.62,-243.07"/>
</g>
<!-- timestamp -->
<g id="node9" class="node">
<title>timestamp</title>
<ellipse fill="none" stroke="black" cx="148.51" cy="-284.78" rx="60.39" ry="18"/>
<text text-anchor="start" x="110.01" y="-282.08" font-family="Times,serif" text-decoration="underline" font-size="14.00">timestamp</text>
</g>
<!-- timestamp&#45;&#45;values -->
<g id="edge5" class="edge">
<title>timestamp&#45;&#45;values</title>
<path fill="none" stroke="black" d="M202.58,-276.58C226.14,-273.01 252.92,-268.95 273.1,-265.89"/>
</g>
<!-- status -->
<g id="node10" class="node">
<title>status</title>
<ellipse fill="none" stroke="black" cx="751.16" cy="-122.37" rx="51.99" ry="18"/>
<text text-anchor="middle" x="751.16" y="-118.67" font-family="Times,serif" font-size="14.00">last seen</text>
</g>
<!-- status&#45;&#45;gatherers -->
<g id="edge8" class="edge">
<title>status&#45;&#45;gatherers</title>
<path fill="none" stroke="black" d="M737.68,-139.88C718.38,-164.96 683.03,-210.87 663.52,-236.22"/>
</g>
<!-- is_standard -->
<g id="node11" class="node">
<title>is_standard</title>
<ellipse fill="none" stroke="black" cx="262.5" cy="-88" rx="64.19" ry="18"/>
<text text-anchor="middle" x="262.5" y="-84.3" font-family="Times,serif" font-size="14.00">is_standard</text>
</g>
<!-- is_standard&#45;&#45;values -->
<g id="edge4" class="edge">
<title>is_standard&#45;&#45;values</title>
<path fill="none" stroke="black" d="M266.9,-106.2C274.94,-139.46 291.91,-209.67 299.95,-242.93"/>
</g>
</g>
</svg>
