<?xml version="1.0" encoding="UTF-8" standalone="no"?>
<!DOCTYPE svg PUBLIC "-//W3C//DTD SVG 1.1//EN"
 "http://www.w3.org/Graphics/SVG/1.1/DTD/svg11.dtd">
<!-- Generated by graphviz version 2.43.0 (0)
 -->
<!-- Title: ER Pages: 1 -->
<svg width="497pt" height="726pt"
 viewBox="0.00 0.00 497.14 726.25" xmlns="http://www.w3.org/2000/svg" xmlns:xlink="http://www.w3.org/1999/xlink">
<g id="graph0" class="graph" transform="scale(1 1) rotate(0) translate(4 722.25)">
<title>ER</title>
<polygon fill="white" stroke="transparent" points="-4,4 -4,-722.25 493.14,-722.25 493.14,4 -4,4"/>
<text text-anchor="middle" x="244.57" y="-22.8" font-family="Times,serif" font-size="14.00">USER DATABASE</text>
<text text-anchor="middle" x="244.57" y="-7.8" font-family="Times,serif" font-size="14.00">Collaborative Measurement Network</text>
<!-- types -->
<g id="node1" class="node">
<title>types</title>
<polygon fill="none" stroke="black" points="179.33,-600.47 123.33,-600.47 123.33,-564.47 179.33,-564.47 179.33,-600.47"/>
<text text-anchor="middle" x="151.33" y="-578.77" font-family="Times,serif" font-size="14.00">types</text>
</g>
<!-- classifies -->
<g id="node12" class="node">
<title>classifies</title>
<polygon fill="lightgrey" stroke="lightgrey" points="199.66,-493.98 125.25,-475.98 199.66,-457.98 274.06,-475.98 199.66,-493.98"/>
<text text-anchor="middle" x="199.66" y="-472.28" font-family="Times,serif" font-size="14.00">classifies</text>
</g>
<!-- types&#45;&#45;classifies -->
<g id="edge9" class="edge">
<title>types&#45;&#45;classifies</title>
<path fill="none" stroke="black" d="M159.53,-564.41C168.69,-544.23 183.38,-511.86 192.21,-492.38"/>
<text text-anchor="middle" x="170.87" y="-517.2" font-family="Times,serif" font-size="14.00">1</text>
</g>
<!-- references -->
<g id="node13" class="node">
<title>references</title>
<polygon fill="lightgrey" stroke="lightgrey" points="258.53,-551.01 173.91,-533.01 258.53,-515.01 343.16,-533.01 258.53,-551.01"/>
<text text-anchor="middle" x="258.53" y="-529.31" font-family="Times,serif" font-size="14.00">references</text>
</g>
<!-- types&#45;&#45;references -->
<g id="edge11" class="edge">
<title>types&#45;&#45;references</title>
<path fill="none" stroke="black" d="M179.5,-569.48C195.63,-562.03 215.76,-552.75 231.66,-545.41"/>
<text text-anchor="middle" x="200.58" y="-561.24" font-family="Times,serif" font-size="14.00">1</text>
</g>
<!-- values -->
<g id="node2" class="node">
<title>values</title>
<polygon fill="none" stroke="black" points="344.36,-440 282.36,-440 282.36,-404 344.36,-404 344.36,-440"/>
<text text-anchor="middle" x="313.36" y="-418.3" font-family="Times,serif" font-size="14.00">values</text>
</g>
<!-- values&#45;&#45;classifies -->
<g id="edge10" class="edge">
<title>values&#45;&#45;classifies</title>
<path fill="none" stroke="black" d="M282.29,-436.75C264.27,-445.3 241.87,-455.94 224.94,-463.98"/>
<text text-anchor="middle" x="248.62" y="-439.16" font-family="Times,serif" font-size="14.00">n</text>
</g>
<!-- values&#45;&#45;references -->
<g id="edge12" class="edge">
<title>values&#45;&#45;references</title>
<path fill="none" stroke="black" d="M304.3,-440.33C293.84,-461.51 276.78,-496.07 266.7,-516.46"/>
<text text-anchor="middle" x="280.5" y="-482.2" font-family="Times,serif" font-size="14.00">n</text>
</g>
<!-- gathers -->
<g id="node14" class="node">
<title>gathers</title>
<polygon fill="lightgrey" stroke="lightgrey" points="314.94,-310.08 249.92,-292.08 314.94,-274.08 379.97,-292.08 314.94,-310.08"/>
<text text-anchor="middle" x="314.94" y="-288.38" font-family="Times,serif" font-size="14.00">gathers</text>
</g>
<!-- values&#45;&#45;gathers -->
<g id="edge14" class="edge">
<title>values&#45;&#45;gathers</title>
<path fill="none" stroke="black" d="M313.58,-403.93C313.88,-379.25 314.42,-335.23 314.72,-310.41"/>
<text text-anchor="middle" x="309.15" y="-360.97" font-family="Times,serif" font-size="14.00">n</text>
</g>
<!-- gatherer -->
<g id="node3" class="node">
<title>gatherer</title>
<polygon fill="none" stroke="black" points="353.06,-190.45 274.06,-190.45 274.06,-154.45 353.06,-154.45 353.06,-190.45"/>
<text text-anchor="middle" x="313.56" y="-168.75" font-family="Times,serif" font-size="14.00">gatherer</text>
</g>
<!-- gatherer&#45;&#45;gathers -->
<g id="edge13" class="edge">
<title>gatherer&#45;&#45;gathers</title>
<path fill="none" stroke="black" d="M313.77,-190.62C314.04,-213.23 314.48,-251.62 314.74,-274.13"/>
<text text-anchor="middle" x="309.26" y="-236.17" font-family="Times,serif" font-size="14.00">1</text>
</g>
<!-- name0 -->
<g id="node4" class="node">
<title>name0</title>
<ellipse fill="none" stroke="black" cx="150.94" cy="-700.25" rx="36.29" ry="18"/>
<text text-anchor="start" x="130.94" y="-697.55" font-family="Times,serif" text-decoration="underline" font-size="14.00">name</text>
</g>
<!-- name0&#45;&#45;types -->
<g id="edge1" class="edge">
<title>name0&#45;&#45;types</title>
<path fill="none" stroke="black" d="M151,-682.11C151.08,-660.04 151.2,-623 151.27,-600.83"/>
</g>
<!-- name1 -->
<g id="node5" class="node">
<title>name1</title>
<ellipse fill="none" stroke="black" cx="387.51" cy="-519.98" rx="36.29" ry="18"/>
<text text-anchor="start" x="367.51" y="-517.28" font-family="Times,serif" text-decoration="underline" font-size="14.00">name</text>
</g>
<!-- name1&#45;&#45;values -->
<g id="edge3" class="edge">
<title>name1&#45;&#45;values</title>
<path fill="none" stroke="black" d="M374.59,-502.91C361.31,-485.37 340.71,-458.15 327.13,-440.2"/>
</g>
<!-- username -->
<g id="node6" class="node">
<title>username</title>
<ellipse fill="none" stroke="black" cx="231.54" cy="-88" rx="56.59" ry="18"/>
<text text-anchor="start" x="196.04" y="-85.3" font-family="Times,serif" text-decoration="underline" font-size="14.00">username</text>
</g>
<!-- username&#45;&#45;gatherer -->
<g id="edge7" class="edge">
<title>username&#45;&#45;gatherer</title>
<path fill="none" stroke="black" d="M248.53,-105.5C262.42,-119.8 281.99,-139.94 296.02,-154.39"/>
</g>
<!-- label -->
<g id="node7" class="node">
<title>label</title>
<ellipse fill="none" stroke="black" cx="33.15" cy="-588.04" rx="33.29" ry="18"/>
<text text-anchor="middle" x="33.15" y="-584.34" font-family="Times,serif" font-size="14.00">label</text>
</g>
<!-- label&#45;&#45;types -->
<g id="edge2" class="edge">
<title>label&#45;&#45;types</title>
<path fill="none" stroke="black" d="M66.38,-586.47C84.27,-585.63 106.1,-584.6 123.15,-583.8"/>
</g>
<!-- comment -->
<g id="node8" class="node">
<title>comment</title>
<ellipse fill="none" stroke="black" cx="435.2" cy="-454.34" rx="53.89" ry="18"/>
<text text-anchor="middle" x="435.2" y="-450.64" font-family="Times,serif" font-size="14.00">comment</text>
</g>
<!-- comment&#45;&#45;values -->
<g id="edge6" class="edge">
<title>comment&#45;&#45;values</title>
<path fill="none" stroke="black" d="M392.92,-443.12C376.98,-438.89 359.15,-434.15 344.41,-430.24"/>
</g>
<!-- blob -->
<g id="node9" class="node">
<title>blob</title>
<ellipse fill="none" stroke="black" cx="216.56" cy="-359.52" rx="30.59" ry="18"/>
<text text-anchor="middle" x="216.56" y="-355.82" font-family="Times,serif" font-size="14.00">blob</text>
</g>
<!-- blob&#45;&#45;values -->
<g id="edge4" class="edge">
<title>blob&#45;&#45;values</title>
<path fill="none" stroke="black" d="M237.56,-373.08C251.57,-382.12 270.15,-394.12 285.41,-403.96"/>
</g>
<!-- timestamp -->
<g id="node10" class="node">
<title>timestamp</title>
<ellipse fill="none" stroke="black" cx="417.37" cy="-374.12" rx="60.39" ry="18"/>
<text text-anchor="start" x="378.87" y="-371.42" font-family="Times,serif" text-decoration="underline" font-size="14.00">timestamp</text>
</g>
<!-- timestamp&#45;&#45;values -->
<g id="edge5" class="edge">
<title>timestamp&#45;&#45;values</title>
<path fill="none" stroke="black" d="M384.46,-389.27C371.73,-395.13 357.21,-401.81 344.64,-407.6"/>
</g>
<!-- status -->
<g id="node11" class="node">
<title>status</title>
<ellipse fill="none" stroke="black" cx="400.42" cy="-93.73" rx="51.99" ry="18"/>
<text text-anchor="middle" x="400.42" y="-90.03" font-family="Times,serif" font-size="14.00">last seen</text>
</g>
<!-- status&#45;&#45;gatherer -->
<g id="edge8" class="edge">
<title>status&#45;&#45;gatherer</title>
<path fill="none" stroke="black" d="M381.57,-110.81C367.4,-123.66 348.03,-141.21 333.58,-154.31"/>
</g>
</g>
</svg>
