<?xml version="1.0" encoding="UTF-8" standalone="no"?>
<!DOCTYPE svg PUBLIC "-//W3C//DTD SVG 1.1//EN"
 "http://www.w3.org/Graphics/SVG/1.1/DTD/svg11.dtd">
<!-- Generated by graphviz version 2.43.0 (0)
 -->
<!-- Title: ER Pages: 1 -->
<svg width="435pt" height="719pt"
 viewBox="0.00 0.00 435.19 719.29" xmlns="http://www.w3.org/2000/svg" xmlns:xlink="http://www.w3.org/1999/xlink">
<g id="graph0" class="graph" transform="scale(1 1) rotate(0) translate(4 715.29)">
<title>ER</title>
<polygon fill="white" stroke="transparent" points="-4,4 -4,-715.29 431.19,-715.29 431.19,4 -4,4"/>
<text text-anchor="middle" x="213.59" y="-22.8" font-family="Times,serif" font-size="14.00">USER DATABASE</text>
<text text-anchor="middle" x="213.59" y="-7.8" font-family="Times,serif" font-size="14.00">Collaborative Measurement Network</text>
<!-- types -->
<g id="node1" class="node">
<title>types</title>
<polygon fill="none" stroke="black" points="167.64,-607.15 111.64,-607.15 111.64,-571.15 167.64,-571.15 167.64,-607.15"/>
<text text-anchor="middle" x="139.64" y="-585.45" font-family="Times,serif" font-size="14.00">types</text>
</g>
<!-- references -->
<g id="node13" class="node">
<title>references</title>
<ellipse fill="none" stroke="black" cx="202.39" cy="-498.78" rx="59.59" ry="18"/>
<text text-anchor="middle" x="202.39" y="-495.08" font-family="Times,serif" font-size="14.00">references</text>
</g>
<!-- types&#45;&#45;references -->
<g id="edge10" class="edge">
<title>types&#45;&#45;references</title>
<path fill="none" stroke="black" d="M152.34,-570.86C163.37,-554.98 179.24,-532.12 190.13,-516.43"/>
<text text-anchor="middle" x="166.24" y="-547.44" font-family="Times,serif" font-size="14.00">1</text>
</g>
<!-- values -->
<g id="node2" class="node">
<title>values</title>
<polygon fill="none" stroke="black" points="292.74,-413.49 230.74,-413.49 230.74,-377.49 292.74,-377.49 292.74,-413.49"/>
<text text-anchor="middle" x="261.74" y="-391.79" font-family="Times,serif" font-size="14.00">values</text>
</g>
<!-- values&#45;&#45;references -->
<g id="edge11" class="edge">
<title>values&#45;&#45;references</title>
<path fill="none" stroke="black" d="M251.13,-413.96C240.26,-432.88 223.47,-462.09 212.71,-480.82"/>
<text text-anchor="middle" x="226.92" y="-451.19" font-family="Times,serif" font-size="14.00">n</text>
</g>
<!-- gathers -->
<g id="node14" class="node">
<title>gathers</title>
<ellipse fill="none" stroke="black" cx="271.28" cy="-276.79" rx="46.29" ry="18"/>
<text text-anchor="middle" x="271.28" y="-273.09" font-family="Times,serif" font-size="14.00">gathers</text>
</g>
<!-- values&#45;&#45;gathers -->
<g id="edge13" class="edge">
<title>values&#45;&#45;gathers</title>
<path fill="none" stroke="black" d="M263.19,-377.46C264.98,-355.15 268.02,-317.38 269.82,-294.99"/>
<text text-anchor="middle" x="261.51" y="-340.03" font-family="Times,serif" font-size="14.00">n</text>
</g>
<!-- gatherers -->
<g id="node3" class="node">
<title>gatherers</title>
<polygon fill="none" stroke="black" points="314.94,-184.82 228.94,-184.82 228.94,-148.82 314.94,-148.82 314.94,-184.82"/>
<text text-anchor="middle" x="271.94" y="-163.12" font-family="Times,serif" font-size="14.00">gatherers</text>
</g>
<!-- gatherers&#45;&#45;gathers -->
<g id="edge12" class="edge">
<title>gatherers&#45;&#45;gathers</title>
<path fill="none" stroke="black" d="M271.83,-184.98C271.71,-205.35 271.51,-238.22 271.39,-258.61"/>
<text text-anchor="middle" x="266.61" y="-225.59" font-family="Times,serif" font-size="14.00">1</text>
</g>
<!-- name0 -->
<g id="node4" class="node">
<title>name0</title>
<ellipse fill="none" stroke="black" cx="167.51" cy="-693.29" rx="36.29" ry="18"/>
<text text-anchor="start" x="147.51" y="-690.59" font-family="Times,serif" text-decoration="underline" font-size="14.00">name</text>
</g>
<!-- name0&#45;&#45;types -->
<g id="edge1" class="edge">
<title>name0&#45;&#45;types</title>
<path fill="none" stroke="black" d="M162.65,-675.15C157.57,-656.15 149.63,-626.48 144.53,-607.43"/>
</g>
<!-- name1 -->
<g id="node5" class="node">
<title>name1</title>
<ellipse fill="none" stroke="black" cx="321.79" cy="-484.03" rx="36.29" ry="18"/>
<text text-anchor="start" x="301.79" y="-481.33" font-family="Times,serif" text-decoration="underline" font-size="14.00">name</text>
</g>
<!-- name1&#45;&#45;values -->
<g id="edge3" class="edge">
<title>name1&#45;&#45;values</title>
<path fill="none" stroke="black" d="M310.22,-466.96C299.85,-451.68 284.71,-429.35 274.11,-413.73"/>
</g>
<!-- username -->
<g id="node6" class="node">
<title>username</title>
<ellipse fill="none" stroke="black" cx="197.18" cy="-88" rx="56.59" ry="18"/>
<text text-anchor="start" x="161.68" y="-85.3" font-family="Times,serif" text-decoration="underline" font-size="14.00">username</text>
</g>
<!-- username&#45;&#45;gatherers -->
<g id="edge8" class="edge">
<title>username&#45;&#45;gatherers</title>
<path fill="none" stroke="black" d="M213.77,-105.49C225.9,-118.28 242.31,-135.59 254.61,-148.55"/>
</g>
<!-- label -->
<g id="node7" class="node">
<title>label</title>
<ellipse fill="none" stroke="black" cx="33.15" cy="-610.86" rx="33.29" ry="18"/>
<text text-anchor="middle" x="33.15" y="-607.16" font-family="Times,serif" font-size="14.00">label</text>
</g>
<!-- label&#45;&#45;types -->
<g id="edge2" class="edge">
<title>label&#45;&#45;types</title>
<path fill="none" stroke="black" d="M64.24,-604.52C79.21,-601.47 97.04,-597.83 111.6,-594.86"/>
</g>
<!-- comment -->
<g id="node8" class="node">
<title>comment</title>
<ellipse fill="none" stroke="black" cx="373.24" cy="-430.13" rx="53.89" ry="18"/>
<text text-anchor="middle" x="373.24" y="-426.43" font-family="Times,serif" font-size="14.00">comment</text>
</g>
<!-- comment&#45;&#45;values -->
<g id="edge7" class="edge">
<title>comment&#45;&#45;values</title>
<path fill="none" stroke="black" d="M333.62,-417.82C320.22,-413.66 305.47,-409.07 292.83,-405.15"/>
</g>
<!-- content -->
<g id="node9" class="node">
<title>content</title>
<ellipse fill="none" stroke="black" cx="174.86" cy="-332.75" rx="46.29" ry="18"/>
<text text-anchor="middle" x="174.86" y="-329.05" font-family="Times,serif" font-size="14.00">content</text>
</g>
<!-- content&#45;&#45;values -->
<g id="edge4" class="edge">
<title>content&#45;&#45;values</title>
<path fill="none" stroke="black" d="M197.24,-348.91C209.3,-357.62 224.23,-368.4 236.69,-377.4"/>
</g>
<!-- timestamp -->
<g id="node10" class="node">
<title>timestamp</title>
<ellipse fill="none" stroke="black" cx="361.2" cy="-356.59" rx="60.39" ry="18"/>
<text text-anchor="start" x="322.7" y="-353.89" font-family="Times,serif" text-decoration="underline" font-size="14.00">timestamp</text>
</g>
<!-- timestamp&#45;&#45;values -->
<g id="edge6" class="edge">
<title>timestamp&#45;&#45;values</title>
<path fill="none" stroke="black" d="M324.45,-370.97C314.04,-375.04 302.83,-379.42 292.79,-383.35"/>
</g>
<!-- status -->
<g id="node11" class="node">
<title>status</title>
<ellipse fill="none" stroke="black" cx="354.49" cy="-97.41" rx="51.99" ry="18"/>
<text text-anchor="middle" x="354.49" y="-93.71" font-family="Times,serif" font-size="14.00">last seen</text>
</g>
<!-- status&#45;&#45;gatherers -->
<g id="edge9" class="edge">
<title>status&#45;&#45;gatherers</title>
<path fill="none" stroke="black" d="M334.51,-114.21C322.1,-124.64 306.16,-138.05 293.47,-148.71"/>
</g>
<!-- is_standard -->
<g id="node12" class="node">
<title>is_standard</title>
<ellipse fill="none" stroke="black" cx="154.99" cy="-398.13" rx="64.19" ry="18"/>
<text text-anchor="middle" x="154.99" y="-394.43" font-family="Times,serif" font-size="14.00">is_standard</text>
</g>
<!-- is_standard&#45;&#45;values -->
<g id="edge5" class="edge">
<title>is_standard&#45;&#45;values</title>
<path fill="none" stroke="black" d="M219.24,-396.54C223.13,-396.45 226.94,-396.35 230.57,-396.26"/>
</g>
</g>
</svg>
