<?xml version="1.0" encoding="UTF-8" standalone="no"?>
<!DOCTYPE svg PUBLIC "-//W3C//DTD SVG 1.1//EN"
 "http://www.w3.org/Graphics/SVG/1.1/DTD/svg11.dtd">
<!-- Generated by graphviz version 2.43.0 (0)
 -->
<!-- Title: ER Pages: 1 -->
<svg width="983pt" height="1037pt"
 viewBox="0.00 0.00 982.88 1037.42" xmlns="http://www.w3.org/2000/svg" xmlns:xlink="http://www.w3.org/1999/xlink">
<g id="graph0" class="graph" transform="scale(1 1) rotate(0) translate(4 1033.42)">
<title>ER</title>
<polygon fill="white" stroke="transparent" points="-4,4 -4,-1033.42 978.88,-1033.42 978.88,4 -4,4"/>
<text text-anchor="middle" x="487.44" y="-7.8" font-family="Times,serif" font-size="14.00">DATABASE of Collaborative Measurement Network</text>
<!-- name0 -->
<g id="node1" class="node">
<title>name0</title>
<ellipse fill="none" stroke="black" cx="36.4" cy="-878.57" rx="36.29" ry="18"/>
<text text-anchor="start" x="16.4" y="-875.87" font-family="Times,serif" text-decoration="underline" font-size="14.00">name</text>
</g>
<!-- types -->
<g id="node22" class="node">
<title>types</title>
<polygon fill="pink" stroke="pink" points="229.16,-864.4 173.16,-864.4 173.16,-828.4 229.16,-828.4 229.16,-864.4"/>
<text text-anchor="middle" x="201.16" y="-842.7" font-family="Times,serif" font-size="14.00">types</text>
</g>
<!-- name0&#45;&#45;types -->
<g id="edge1" class="edge">
<title>name0&#45;&#45;types</title>
<path fill="none" stroke="black" d="M70.54,-871.9C100.89,-865.98 144.73,-857.42 173.09,-851.88"/>
</g>
<!-- label -->
<g id="node2" class="node">
<title>label</title>
<ellipse fill="none" stroke="black" cx="224.16" cy="-1011.42" rx="33.29" ry="18"/>
<text text-anchor="middle" x="224.16" y="-1007.72" font-family="Times,serif" font-size="14.00">label</text>
</g>
<!-- label&#45;&#45;types -->
<g id="edge2" class="edge">
<title>label&#45;&#45;types</title>
<path fill="none" stroke="black" d="M221.65,-993.45C217.24,-961.79 208.13,-896.42 203.7,-864.6"/>
</g>
<!-- comment -->
<g id="node3" class="node">
<title>comment</title>
<ellipse fill="none" stroke="black" cx="218.77" cy="-406.11" rx="53.89" ry="18"/>
<text text-anchor="middle" x="218.77" y="-402.41" font-family="Times,serif" font-size="14.00">comment</text>
</g>
<!-- values -->
<g id="node23" class="node">
<title>values</title>
<polygon fill="pink" stroke="pink" points="421.3,-545.63 359.3,-545.63 359.3,-509.63 421.3,-509.63 421.3,-545.63"/>
<text text-anchor="middle" x="390.3" y="-523.93" font-family="Times,serif" font-size="14.00">values</text>
</g>
<!-- comment&#45;&#45;values -->
<g id="edge6" class="edge">
<title>comment&#45;&#45;values</title>
<path fill="none" stroke="black" d="M241.9,-422.5C273.91,-445.17 331.5,-485.97 364.74,-509.52"/>
</g>
<!-- content -->
<g id="node4" class="node">
<title>content</title>
<ellipse fill="none" stroke="black" cx="258.16" cy="-589.07" rx="46.29" ry="18"/>
<text text-anchor="middle" x="258.16" y="-585.37" font-family="Times,serif" font-size="14.00">content</text>
</g>
<!-- content&#45;&#45;values -->
<g id="edge3" class="edge">
<title>content&#45;&#45;values</title>
<path fill="none" stroke="black" d="M288.15,-575.12C309.31,-565.28 337.61,-552.13 359.06,-542.16"/>
</g>
<!-- timestamp -->
<g id="node5" class="node">
<title>timestamp</title>
<ellipse fill="none" stroke="black" cx="451.68" cy="-668.82" rx="60.39" ry="18"/>
<text text-anchor="start" x="413.18" y="-666.12" font-family="Times,serif" text-decoration="underline" font-size="14.00">timestamp</text>
</g>
<!-- timestamp&#45;&#45;values -->
<g id="edge5" class="edge">
<title>timestamp&#45;&#45;values</title>
<path fill="none" stroke="black" d="M443.91,-650.94C432.17,-623.93 410.02,-573 398.2,-545.81"/>
</g>
<!-- status -->
<g id="node6" class="node">
<title>status</title>
<ellipse fill="none" stroke="black" cx="868.79" cy="-654.77" rx="51.99" ry="18"/>
<text text-anchor="middle" x="868.79" y="-651.07" font-family="Times,serif" font-size="14.00">last seen</text>
</g>
<!-- user -->
<g id="node20" class="node">
<title>user</title>
<polygon fill="lightblue" stroke="lightblue" points="787.23,-548.63 708.23,-548.63 708.23,-512.63 787.23,-512.63 787.23,-548.63"/>
<text text-anchor="middle" x="747.73" y="-526.93" font-family="Times,serif" font-size="14.00">gatherer</text>
</g>
<!-- status&#45;&#45;user -->
<g id="edge7" class="edge">
<title>status&#45;&#45;user</title>
<path fill="none" stroke="black" d="M851.96,-637.51C829.22,-614.19 788.86,-572.81 765.6,-548.95"/>
</g>
<!-- is_standard -->
<g id="node7" class="node">
<title>is_standard</title>
<ellipse fill="none" stroke="black" cx="205.5" cy="-500.98" rx="64.19" ry="18"/>
<text text-anchor="middle" x="205.5" y="-497.28" font-family="Times,serif" font-size="14.00">is_standard</text>
</g>
<!-- is_standard&#45;&#45;values -->
<g id="edge4" class="edge">
<title>is_standard&#45;&#45;values</title>
<path fill="none" stroke="black" d="M262.71,-509.23C294.51,-513.81 332.85,-519.34 359.15,-523.14"/>
</g>
<!-- groupID -->
<g id="node8" class="node">
<title>groupID</title>
<ellipse fill="none" stroke="black" cx="329.48" cy="-394.05" rx="48.99" ry="18"/>
<text text-anchor="middle" x="329.48" y="-390.35" font-family="Times,serif" font-size="14.00">groupID</text>
</g>
<!-- groupID&#45;&#45;values -->
<g id="edge8" class="edge">
<title>groupID&#45;&#45;values</title>
<path fill="none" stroke="black" d="M337.68,-412.06C349.29,-437.56 370.39,-483.9 382.03,-509.47"/>
</g>
<!-- groupPK -->
<g id="node9" class="node">
<title>groupPK</title>
<ellipse fill="none" stroke="black" cx="461.84" cy="-110.02" rx="53.89" ry="18"/>
<text text-anchor="start" x="428.34" y="-107.32" font-family="Times,serif" text-decoration="underline" font-size="14.00">group_pk</text>
</g>
<!-- group_name -->
<g id="node10" class="node">
<title>group_name</title>
<ellipse fill="none" stroke="black" cx="731.04" cy="-133.95" rx="67.69" ry="18"/>
<text text-anchor="middle" x="731.04" y="-130.25" font-family="Times,serif" font-size="14.00">group_name</text>
</g>
<!-- group_description -->
<g id="node11" class="node">
<title>group_description</title>
<ellipse fill="none" stroke="black" cx="618.7" cy="-73" rx="94.78" ry="18"/>
<text text-anchor="middle" x="618.7" y="-69.3" font-family="Times,serif" font-size="14.00">group_description</text>
</g>
<!-- user_name -->
<g id="node12" class="node">
<title>user_name</title>
<ellipse fill="none" stroke="black" cx="772.69" cy="-704.04" rx="61.19" ry="18"/>
<text text-anchor="start" x="733.69" y="-701.34" font-family="Times,serif" text-decoration="underline" font-size="14.00">user_name</text>
</g>
<!-- password_hash -->
<g id="node13" class="node">
<title>password_hash</title>
<ellipse fill="none" stroke="black" cx="893.64" cy="-434.8" rx="81.49" ry="18"/>
<text text-anchor="middle" x="893.64" y="-431.1" font-family="Times,serif" font-size="14.00">password_hash</text>
</g>
<!-- mail -->
<g id="node14" class="node">
<title>mail</title>
<ellipse fill="none" stroke="black" cx="917.33" cy="-546.67" rx="30.59" ry="18"/>
<text text-anchor="middle" x="917.33" y="-542.97" font-family="Times,serif" font-size="14.00">mail</text>
</g>
<!-- references -->
<g id="node15" class="node">
<title>references</title>
<polygon fill="lightgrey" stroke="lightgrey" points="298.65,-727.41 214.03,-709.41 298.65,-691.41 383.28,-709.41 298.65,-727.41"/>
<text text-anchor="middle" x="298.65" y="-705.71" font-family="Times,serif" font-size="14.00">references</text>
</g>
<!-- gathers -->
<g id="node16" class="node">
<title>gathers</title>
<polygon fill="lightgrey" stroke="lightgrey" points="573.21,-583.56 508.19,-565.56 573.21,-547.56 638.23,-565.56 573.21,-583.56"/>
<text text-anchor="middle" x="573.21" y="-561.86" font-family="Times,serif" font-size="14.00">gathers</text>
</g>
<!-- memberships -->
<g id="node17" class="node">
<title>memberships</title>
<polygon fill="lightgrey" stroke="lightgrey" points="731.48,-369.98 627.75,-351.98 731.48,-333.98 835.21,-351.98 731.48,-369.98"/>
<text text-anchor="middle" x="731.48" y="-348.28" font-family="Times,serif" font-size="14.00">memberships</text>
</g>
<!-- group -->
<g id="node19" class="node">
<title>group</title>
<polygon fill="lightblue" stroke="lightblue" points="621.55,-262.09 562.55,-262.09 562.55,-226.09 621.55,-226.09 621.55,-262.09"/>
<text text-anchor="middle" x="592.05" y="-240.39" font-family="Times,serif" font-size="14.00">group</text>
</g>
<!-- memberships&#45;&#45;group -->
<g id="edge19" class="edge">
<title>memberships&#45;&#45;group</title>
<path fill="none" stroke="black" d="M712.38,-337.21C687.18,-317.7 642.81,-283.37 615.57,-262.29"/>
<text text-anchor="middle" x="658.97" y="-303.55" font-family="Times,serif" font-size="14.00">n</text>
</g>
<!-- memberships&#45;&#45;user -->
<g id="edge20" class="edge">
<title>memberships&#45;&#45;user</title>
<path fill="none" stroke="black" d="M733.1,-369.76C736.19,-403.83 742.94,-477.96 746.07,-512.38"/>
<text text-anchor="middle" x="732.58" y="-444.87" font-family="Times,serif" font-size="14.00">m</text>
</g>
<!-- published in -->
<g id="node18" class="node">
<title>published in</title>
<polygon fill="lightgrey" stroke="lightgrey" points="481.83,-379.08 386.15,-361.08 481.83,-343.08 577.51,-361.08 481.83,-379.08"/>
<text text-anchor="middle" x="481.83" y="-357.38" font-family="Times,serif" font-size="14.00">published in</text>
</g>
<!-- published in&#45;&#45;group -->
<g id="edge22" class="edge">
<title>published in&#45;&#45;group</title>
<path fill="none" stroke="black" d="M496.24,-345.79C516.43,-324.36 553.09,-285.45 574.74,-262.47"/>
<text text-anchor="middle" x="530.49" y="-307.93" font-family="Times,serif" font-size="14.00">1</text>
</g>
<!-- published in&#45;&#45;values -->
<g id="edge21" class="edge">
<title>published in&#45;&#45;values</title>
<path fill="none" stroke="black" d="M472.72,-377.66C455.45,-409.09 418.07,-477.1 400.2,-509.61"/>
<text text-anchor="middle" x="431.46" y="-447.44" font-family="Times,serif" font-size="14.00">n</text>
</g>
<!-- group&#45;&#45;groupPK -->
<g id="edge13" class="edge">
<title>group&#45;&#45;groupPK</title>
<path fill="none" stroke="black" d="M574.49,-226.01C549.36,-200.14 503.46,-152.87 478.71,-127.39"/>
</g>
<!-- group&#45;&#45;group_name -->
<g id="edge14" class="edge">
<title>group&#45;&#45;group_name</title>
<path fill="none" stroke="black" d="M615,-225.9C641.22,-205.13 683.79,-171.39 709.43,-151.07"/>
</g>
<!-- group&#45;&#45;group_description -->
<g id="edge15" class="edge">
<title>group&#45;&#45;group_description</title>
<path fill="none" stroke="black" d="M594.9,-225.78C600.03,-192.85 610.75,-124.01 615.87,-91.18"/>
</g>
<!-- user&#45;&#45;user_name -->
<g id="edge18" class="edge">
<title>user&#45;&#45;user_name</title>
<path fill="none" stroke="black" d="M750.35,-548.86C755.16,-582.25 765.32,-652.84 770.11,-686.06"/>
</g>
<!-- user&#45;&#45;password_hash -->
<g id="edge16" class="edge">
<title>user&#45;&#45;password_hash</title>
<path fill="none" stroke="black" d="M775.17,-512.6C801.59,-495.25 841.26,-469.2 867.3,-452.1"/>
</g>
<!-- user&#45;&#45;mail -->
<g id="edge17" class="edge">
<title>user&#45;&#45;mail</title>
<path fill="none" stroke="black" d="M787.49,-534.39C817.94,-537.27 859.31,-541.18 887.09,-543.81"/>
</g>
<!-- user&#45;&#45;gathers -->
<g id="edge11" class="edge">
<title>user&#45;&#45;gathers</title>
<path fill="none" stroke="black" d="M708.12,-538.55C679.06,-544.37 639.82,-552.23 611.15,-557.97"/>
<text text-anchor="middle" x="654.64" y="-552.06" font-family="Times,serif" font-size="14.00">1</text>
</g>
<!-- extraindividual Entities -->
<g id="node21" class="node">
<title>extraindividual Entities</title>
<polygon fill="lightblue" stroke="lightblue" points="929,-835 744,-835 744,-799 929,-799 929,-835"/>
<text text-anchor="middle" x="836.5" y="-813.3" font-family="Times,serif" font-size="14.00">extraindividual Entities</text>
</g>
<!-- types&#45;&#45;references -->
<g id="edge9" class="edge">
<title>types&#45;&#45;references</title>
<path fill="none" stroke="black" d="M214.11,-828.21C233.38,-801.13 269.28,-750.69 287.47,-725.13"/>
<text text-anchor="middle" x="245.79" y="-780.47" font-family="Times,serif" font-size="14.00">1</text>
</g>
<!-- values&#45;&#45;references -->
<g id="edge10" class="edge">
<title>values&#45;&#45;references</title>
<path fill="none" stroke="black" d="M381.18,-545.72C363.34,-581.11 324.09,-658.97 306.94,-692.97"/>
<text text-anchor="middle" x="339.06" y="-623.15" font-family="Times,serif" font-size="14.00">n</text>
</g>
<!-- values&#45;&#45;gathers -->
<g id="edge12" class="edge">
<title>values&#45;&#45;gathers</title>
<path fill="none" stroke="black" d="M421.33,-534.06C453.03,-540.64 502.25,-550.85 536.02,-557.85"/>
<text text-anchor="middle" x="473.67" y="-549.76" font-family="Times,serif" font-size="14.00">n</text>
</g>
<!-- individual Entities -->
<g id="node24" class="node">
<title>individual Entities</title>
<polygon fill="pink" stroke="pink" points="644,-835 496,-835 496,-799 644,-799 644,-835"/>
<text text-anchor="middle" x="570" y="-813.3" font-family="Times,serif" font-size="14.00">individual Entities</text>
</g>
</g>
</svg>
