<?xml version="1.0" encoding="UTF-8" standalone="no"?>
<!DOCTYPE svg PUBLIC "-//W3C//DTD SVG 1.1//EN"
 "http://www.w3.org/Graphics/SVG/1.1/DTD/svg11.dtd">
<!-- Generated by graphviz version 2.43.0 (0)
 -->
<!-- Title: ER Pages: 1 -->
<svg width="935pt" height="722pt"
 viewBox="0.00 0.00 935.38 722.46" xmlns="http://www.w3.org/2000/svg" xmlns:xlink="http://www.w3.org/1999/xlink">
<g id="graph0" class="graph" transform="scale(1 1) rotate(0) translate(4 718.46)">
<title>ER</title>
<polygon fill="white" stroke="transparent" points="-4,4 -4,-718.46 931.38,-718.46 931.38,4 -4,4"/>
<text text-anchor="middle" x="463.69" y="-22.8" font-family="Times,serif" font-size="14.00">USER DATABASE</text>
<text text-anchor="middle" x="463.69" y="-7.8" font-family="Times,serif" font-size="14.00">Collaborative Measurement Network</text>
<!-- types -->
<g id="node1" class="node">
<title>types</title>
<polygon fill="none" stroke="black" points="177.79,-304.08 121.79,-304.08 121.79,-268.08 177.79,-268.08 177.79,-304.08"/>
<text text-anchor="middle" x="149.79" y="-282.38" font-family="Times,serif" font-size="14.00">types</text>
</g>
<!-- references -->
<g id="node14" class="node">
<title>references</title>
<ellipse fill="none" stroke="black" cx="316.16" cy="-285.67" rx="59.59" ry="18"/>
<text text-anchor="middle" x="316.16" y="-281.97" font-family="Times,serif" font-size="14.00">references</text>
</g>
<!-- types&#45;&#45;references -->
<g id="edge10" class="edge">
<title>types&#45;&#45;references</title>
<path fill="none" stroke="black" d="M178.01,-286.01C199.43,-285.95 229.64,-285.88 256.35,-285.82"/>
<text text-anchor="middle" x="212.18" y="-289.71" font-family="Times,serif" font-size="14.00">1</text>
</g>
<!-- values -->
<g id="node2" class="node">
<title>values</title>
<polygon fill="none" stroke="black" points="527.63,-280.54 465.63,-280.54 465.63,-244.54 527.63,-244.54 527.63,-280.54"/>
<text text-anchor="middle" x="496.63" y="-258.84" font-family="Times,serif" font-size="14.00">values</text>
</g>
<!-- values&#45;&#45;references -->
<g id="edge11" class="edge">
<title>values&#45;&#45;references</title>
<path fill="none" stroke="black" d="M465.6,-266.51C439.81,-269.82 402.45,-274.61 371.54,-278.57"/>
<text text-anchor="middle" x="413.57" y="-276.34" font-family="Times,serif" font-size="14.00">n</text>
</g>
<!-- gathers -->
<g id="node15" class="node">
<title>gathers</title>
<ellipse fill="none" stroke="black" cx="603.5" cy="-408.73" rx="46.29" ry="18"/>
<text text-anchor="middle" x="603.5" y="-405.03" font-family="Times,serif" font-size="14.00">gathers</text>
</g>
<!-- values&#45;&#45;gathers -->
<g id="edge13" class="edge">
<title>values&#45;&#45;gathers</title>
<path fill="none" stroke="black" d="M509.95,-280.76C530.65,-309.08 570.29,-363.3 590.68,-391.2"/>
<text text-anchor="middle" x="545.31" y="-339.78" font-family="Times,serif" font-size="14.00">n</text>
</g>
<!-- gatherers -->
<g id="node3" class="node">
<title>gatherers</title>
<polygon fill="none" stroke="black" points="506,-526 420,-526 420,-490 506,-490 506,-526"/>
<text text-anchor="middle" x="463" y="-504.3" font-family="Times,serif" font-size="14.00">gatherers</text>
</g>
<!-- name0 -->
<g id="node4" class="node">
<title>name0</title>
<ellipse fill="none" stroke="black" cx="36.4" cy="-167.86" rx="36.29" ry="18"/>
<text text-anchor="start" x="16.4" y="-165.16" font-family="Times,serif" text-decoration="underline" font-size="14.00">name</text>
</g>
<!-- name0&#45;&#45;types -->
<g id="edge1" class="edge">
<title>name0&#45;&#45;types</title>
<path fill="none" stroke="black" d="M52.16,-184.3C73.22,-206.25 110.4,-245.01 132.3,-267.84"/>
</g>
<!-- name1 -->
<g id="node5" class="node">
<title>name1</title>
<ellipse fill="none" stroke="black" cx="435.71" cy="-403.37" rx="36.29" ry="18"/>
<text text-anchor="start" x="415.71" y="-400.67" font-family="Times,serif" text-decoration="underline" font-size="14.00">name</text>
</g>
<!-- name1&#45;&#45;values -->
<g id="edge3" class="edge">
<title>name1&#45;&#45;values</title>
<path fill="none" stroke="black" d="M443.42,-385.53C455.08,-358.59 477.05,-307.79 488.78,-280.67"/>
</g>
<!-- username -->
<g id="node6" class="node">
<title>username</title>
<ellipse fill="none" stroke="black" cx="702" cy="-696.46" rx="56.59" ry="18"/>
<text text-anchor="start" x="666.5" y="-693.76" font-family="Times,serif" text-decoration="underline" font-size="14.00">username</text>
</g>
<!-- gatherer -->
<g id="node13" class="node">
<title>gatherer</title>
<ellipse fill="none" stroke="black" cx="712.06" cy="-534.44" rx="51.19" ry="18"/>
<text text-anchor="middle" x="712.06" y="-530.74" font-family="Times,serif" font-size="14.00">gatherer</text>
</g>
<!-- username&#45;&#45;gatherer -->
<g id="edge8" class="edge">
<title>username&#45;&#45;gatherer</title>
<path fill="none" stroke="black" d="M703.13,-678.19C705.06,-647.07 708.97,-584.14 710.91,-552.89"/>
</g>
<!-- label -->
<g id="node7" class="node">
<title>label</title>
<ellipse fill="none" stroke="black" cx="35.14" cy="-400.61" rx="33.29" ry="18"/>
<text text-anchor="middle" x="35.14" y="-396.91" font-family="Times,serif" font-size="14.00">label</text>
</g>
<!-- label&#45;&#45;types -->
<g id="edge2" class="edge">
<title>label&#45;&#45;types</title>
<path fill="none" stroke="black" d="M51.08,-384.68C72.25,-363.54 109.53,-326.29 131.72,-304.13"/>
</g>
<!-- comment -->
<g id="node8" class="node">
<title>comment</title>
<ellipse fill="none" stroke="black" cx="406.38" cy="-136.87" rx="53.89" ry="18"/>
<text text-anchor="middle" x="406.38" y="-133.17" font-family="Times,serif" font-size="14.00">comment</text>
</g>
<!-- comment&#45;&#45;values -->
<g id="edge7" class="edge">
<title>comment&#45;&#45;values</title>
<path fill="none" stroke="black" d="M419.12,-154.6C436.22,-178.42 466.44,-220.5 483.66,-244.48"/>
</g>
<!-- content -->
<g id="node9" class="node">
<title>content</title>
<ellipse fill="none" stroke="black" cx="650.87" cy="-239.42" rx="46.29" ry="18"/>
<text text-anchor="middle" x="650.87" y="-235.72" font-family="Times,serif" font-size="14.00">content</text>
</g>
<!-- content&#45;&#45;values -->
<g id="edge4" class="edge">
<title>content&#45;&#45;values</title>
<path fill="none" stroke="black" d="M607.49,-245.92C582.19,-249.71 550.84,-254.41 527.95,-257.84"/>
</g>
<!-- timestamp -->
<g id="node10" class="node">
<title>timestamp</title>
<ellipse fill="none" stroke="black" cx="508.4" cy="-88" rx="60.39" ry="18"/>
<text text-anchor="start" x="469.9" y="-85.3" font-family="Times,serif" text-decoration="underline" font-size="14.00">timestamp</text>
</g>
<!-- timestamp&#45;&#45;values -->
<g id="edge6" class="edge">
<title>timestamp&#45;&#45;values</title>
<path fill="none" stroke="black" d="M507.18,-106.02C504.93,-139.47 500.12,-210.78 497.85,-244.35"/>
</g>
<!-- status -->
<g id="node11" class="node">
<title>status</title>
<ellipse fill="none" stroke="black" cx="875.38" cy="-541.12" rx="51.99" ry="18"/>
<text text-anchor="middle" x="875.38" y="-537.42" font-family="Times,serif" font-size="14.00">last seen</text>
</g>
<!-- status&#45;&#45;gatherer -->
<g id="edge9" class="edge">
<title>status&#45;&#45;gatherer</title>
<path fill="none" stroke="black" d="M823.71,-539C804.36,-538.21 782.41,-537.32 763.12,-536.53"/>
</g>
<!-- is_standard -->
<g id="node12" class="node">
<title>is_standard</title>
<ellipse fill="none" stroke="black" cx="613.99" cy="-132" rx="64.19" ry="18"/>
<text text-anchor="middle" x="613.99" y="-128.3" font-family="Times,serif" font-size="14.00">is_standard</text>
</g>
<!-- is_standard&#45;&#45;values -->
<g id="edge5" class="edge">
<title>is_standard&#45;&#45;values</title>
<path fill="none" stroke="black" d="M598.16,-149.61C575.88,-174.38 535.5,-219.3 512.96,-244.37"/>
</g>
<!-- gatherer&#45;&#45;gathers -->
<g id="edge12" class="edge">
<title>gatherer&#45;&#45;gathers</title>
<path fill="none" stroke="black" d="M696.96,-516.96C676.22,-492.95 639.14,-450 618.47,-426.06"/>
<text text-anchor="middle" x="652.71" y="-475.31" font-family="Times,serif" font-size="14.00">1</text>
</g>
</g>
</svg>
