<?xml version="1.0" encoding="UTF-8" standalone="no"?>
<!DOCTYPE svg PUBLIC "-//W3C//DTD SVG 1.1//EN"
 "http://www.w3.org/Graphics/SVG/1.1/DTD/svg11.dtd">
<!-- Generated by graphviz version 2.43.0 (0)
 -->
<!-- Title: ER Pages: 1 -->
<svg width="1272pt" height="749pt"
 viewBox="0.00 0.00 1272.06 748.87" xmlns="http://www.w3.org/2000/svg" xmlns:xlink="http://www.w3.org/1999/xlink">
<g id="graph0" class="graph" transform="scale(1 1) rotate(0) translate(4 744.87)">
<title>ER</title>
<polygon fill="white" stroke="transparent" points="-4,4 -4,-744.87 1268.06,-744.87 1268.06,4 -4,4"/>
<text text-anchor="middle" x="632.03" y="-22.8" font-family="Times,serif" font-size="14.00">USER DATABASE</text>
<text text-anchor="middle" x="632.03" y="-7.8" font-family="Times,serif" font-size="14.00">Collaborative Measurement Network</text>
<!-- types -->
<g id="node1" class="node">
<title>types</title>
<polygon fill="none" stroke="black" points="259.58,-498.49 203.58,-498.49 203.58,-462.49 259.58,-462.49 259.58,-498.49"/>
<text text-anchor="middle" x="231.58" y="-476.79" font-family="Times,serif" font-size="14.00">types</text>
</g>
<!-- classifies -->
<g id="node13" class="node">
<title>classifies</title>
<polygon fill="lightgrey" stroke="lightgrey" points="391.7,-363.27 317.3,-345.27 391.7,-327.27 466.1,-345.27 391.7,-363.27"/>
<text text-anchor="middle" x="391.7" y="-341.57" font-family="Times,serif" font-size="14.00">classifies</text>
</g>
<!-- types&#45;&#45;classifies -->
<g id="edge10" class="edge">
<title>types&#45;&#45;classifies</title>
<path fill="none" stroke="black" d="M253.17,-462.25C285.44,-435 345.57,-384.23 374.83,-359.52"/>
<text text-anchor="middle" x="309" y="-414.68" font-family="Times,serif" font-size="14.00">1</text>
</g>
<!-- references -->
<g id="node15" class="node">
<title>references</title>
<polygon fill="lightgrey" stroke="lightgrey" points="443.31,-488.31 358.69,-470.31 443.31,-452.31 527.94,-470.31 443.31,-488.31"/>
<text text-anchor="middle" x="443.31" y="-466.61" font-family="Times,serif" font-size="14.00">references</text>
</g>
<!-- types&#45;&#45;references -->
<g id="edge12" class="edge">
<title>types&#45;&#45;references</title>
<path fill="none" stroke="black" d="M259.69,-479.14C288.72,-477.74 335.12,-475.51 374.01,-473.64"/>
<text text-anchor="middle" x="311.85" y="-480.19" font-family="Times,serif" font-size="14.00">1</text>
</g>
<!-- values -->
<g id="node2" class="node">
<title>values</title>
<polygon fill="none" stroke="black" points="643.15,-333.6 581.15,-333.6 581.15,-297.6 643.15,-297.6 643.15,-333.6"/>
<text text-anchor="middle" x="612.15" y="-311.9" font-family="Times,serif" font-size="14.00">values</text>
</g>
<!-- values&#45;&#45;classifies -->
<g id="edge11" class="edge">
<title>values&#45;&#45;classifies</title>
<path fill="none" stroke="black" d="M581.03,-319.79C544.24,-324.74 482.59,-333.04 439.68,-338.81"/>
<text text-anchor="middle" x="505.36" y="-333.1" font-family="Times,serif" font-size="14.00">n</text>
</g>
<!-- values&#45;&#45;references -->
<g id="edge13" class="edge">
<title>values&#45;&#45;references</title>
<path fill="none" stroke="black" d="M592.45,-333.65C558.7,-364.58 490.46,-427.11 459.38,-455.59"/>
<text text-anchor="middle" x="520.92" y="-398.42" font-family="Times,serif" font-size="14.00">n</text>
</g>
<!-- gathers -->
<g id="node16" class="node">
<title>gathers</title>
<polygon fill="lightgrey" stroke="lightgrey" points="818.2,-455.85 753.18,-437.85 818.2,-419.85 883.22,-437.85 818.2,-455.85"/>
<text text-anchor="middle" x="818.2" y="-434.15" font-family="Times,serif" font-size="14.00">gathers</text>
</g>
<!-- values&#45;&#45;gathers -->
<g id="edge15" class="edge">
<title>values&#45;&#45;gathers</title>
<path fill="none" stroke="black" d="M642.55,-333.64C684.98,-358.81 760.84,-403.82 797.39,-425.51"/>
<text text-anchor="middle" x="714.97" y="-383.37" font-family="Times,serif" font-size="14.00">n</text>
</g>
<!-- gatherers -->
<g id="node3" class="node">
<title>gatherers</title>
<polygon fill="none" stroke="black" points="950,-682 864,-682 864,-646 950,-646 950,-682"/>
<text text-anchor="middle" x="907" y="-660.3" font-family="Times,serif" font-size="14.00">gatherers</text>
</g>
<!-- name0 -->
<g id="node4" class="node">
<title>name0</title>
<ellipse fill="none" stroke="black" cx="36.4" cy="-395.78" rx="36.29" ry="18"/>
<text text-anchor="start" x="16.4" y="-393.08" font-family="Times,serif" text-decoration="underline" font-size="14.00">name</text>
</g>
<!-- name0&#45;&#45;types -->
<g id="edge1" class="edge">
<title>name0&#45;&#45;types</title>
<path fill="none" stroke="black" d="M63.95,-407.73C100.94,-423.79 166.3,-452.16 203.53,-468.32"/>
</g>
<!-- name1 -->
<g id="node5" class="node">
<title>name1</title>
<ellipse fill="none" stroke="black" cx="636.8" cy="-518.99" rx="36.29" ry="18"/>
<text text-anchor="start" x="616.8" y="-516.29" font-family="Times,serif" text-decoration="underline" font-size="14.00">name</text>
</g>
<!-- name1&#45;&#45;values -->
<g id="edge3" class="edge">
<title>name1&#45;&#45;values</title>
<path fill="none" stroke="black" d="M634.62,-500.94C629.94,-462.35 619.01,-372.17 614.33,-333.61"/>
</g>
<!-- username -->
<g id="node6" class="node">
<title>username</title>
<ellipse fill="none" stroke="black" cx="1090.62" cy="-722.87" rx="56.59" ry="18"/>
<text text-anchor="start" x="1055.12" y="-720.17" font-family="Times,serif" text-decoration="underline" font-size="14.00">username</text>
</g>
<!-- gatherer -->
<g id="node14" class="node">
<title>gatherer</title>
<polygon fill="lightgrey" stroke="lightgrey" points="1015.04,-544.89 942.31,-526.89 1015.04,-508.89 1087.77,-526.89 1015.04,-544.89"/>
<text text-anchor="middle" x="1015.04" y="-523.19" font-family="Times,serif" font-size="14.00">gatherer</text>
</g>
<!-- username&#45;&#45;gatherer -->
<g id="edge8" class="edge">
<title>username&#45;&#45;gatherer</title>
<path fill="none" stroke="black" d="M1083.64,-704.78C1069.06,-666.98 1035.54,-580.06 1021.46,-543.54"/>
</g>
<!-- label -->
<g id="node7" class="node">
<title>label</title>
<ellipse fill="none" stroke="black" cx="134.34" cy="-667.55" rx="33.29" ry="18"/>
<text text-anchor="middle" x="134.34" y="-663.85" font-family="Times,serif" font-size="14.00">label</text>
</g>
<!-- label&#45;&#45;types -->
<g id="edge2" class="edge">
<title>label&#45;&#45;types</title>
<path fill="none" stroke="black" d="M143.49,-649.95C161.92,-614.48 203.38,-534.72 222.09,-498.73"/>
</g>
<!-- comment -->
<g id="node8" class="node">
<title>comment</title>
<ellipse fill="none" stroke="black" cx="473.58" cy="-151.22" rx="53.89" ry="18"/>
<text text-anchor="middle" x="473.58" y="-147.52" font-family="Times,serif" font-size="14.00">comment</text>
</g>
<!-- comment&#45;&#45;values -->
<g id="edge7" class="edge">
<title>comment&#45;&#45;values</title>
<path fill="none" stroke="black" d="M488.41,-168.82C514.87,-200.2 569.96,-265.55 596.8,-297.39"/>
</g>
<!-- content -->
<g id="node9" class="node">
<title>content</title>
<ellipse fill="none" stroke="black" cx="789.82" cy="-236.53" rx="46.29" ry="18"/>
<text text-anchor="middle" x="789.82" y="-232.83" font-family="Times,serif" font-size="14.00">content</text>
</g>
<!-- content&#45;&#45;values -->
<g id="edge4" class="edge">
<title>content&#45;&#45;values</title>
<path fill="none" stroke="black" d="M759.27,-250.12C726.83,-264.56 675.82,-287.27 643.19,-301.79"/>
</g>
<!-- timestamp -->
<g id="node10" class="node">
<title>timestamp</title>
<ellipse fill="none" stroke="black" cx="589.27" cy="-88" rx="60.39" ry="18"/>
<text text-anchor="start" x="550.77" y="-85.3" font-family="Times,serif" text-decoration="underline" font-size="14.00">timestamp</text>
</g>
<!-- timestamp&#45;&#45;values -->
<g id="edge6" class="edge">
<title>timestamp&#45;&#45;values</title>
<path fill="none" stroke="black" d="M591.1,-106.24C595.4,-148.96 606.07,-255.1 610.34,-297.59"/>
</g>
<!-- status -->
<g id="node11" class="node">
<title>status</title>
<ellipse fill="none" stroke="black" cx="1212.07" cy="-448.77" rx="51.99" ry="18"/>
<text text-anchor="middle" x="1212.07" y="-445.07" font-family="Times,serif" font-size="14.00">last seen</text>
</g>
<!-- status&#45;&#45;gatherer -->
<g id="edge9" class="edge">
<title>status&#45;&#45;gatherer</title>
<path fill="none" stroke="black" d="M1177.75,-462.37C1139.6,-477.5 1078.71,-501.65 1043.23,-515.72"/>
</g>
<!-- is_standard -->
<g id="node12" class="node">
<title>is_standard</title>
<ellipse fill="none" stroke="black" cx="722.07" cy="-117.67" rx="64.19" ry="18"/>
<text text-anchor="middle" x="722.07" y="-113.97" font-family="Times,serif" font-size="14.00">is_standard</text>
</g>
<!-- is_standard&#45;&#45;values -->
<g id="edge5" class="edge">
<title>is_standard&#45;&#45;values</title>
<path fill="none" stroke="black" d="M712.12,-135.58C691.25,-173.17 643.08,-259.91 622.16,-297.59"/>
</g>
<!-- gatherer&#45;&#45;gathers -->
<g id="edge14" class="edge">
<title>gatherer&#45;&#45;gathers</title>
<path fill="none" stroke="black" d="M989.31,-515.25C951.27,-498.05 880.51,-466.04 843.01,-449.08"/>
<text text-anchor="middle" x="911.16" y="-485.96" font-family="Times,serif" font-size="14.00">1</text>
</g>
</g>
</svg>
