<?xml version="1.0" encoding="UTF-8" standalone="no"?>
<!DOCTYPE svg PUBLIC "-//W3C//DTD SVG 1.1//EN"
 "http://www.w3.org/Graphics/SVG/1.1/DTD/svg11.dtd">
<!-- Generated by graphviz version 2.43.0 (0)
 -->
<!-- Title: ER Pages: 1 -->
<svg width="1304pt" height="872pt"
 viewBox="0.00 0.00 1303.61 872.17" xmlns="http://www.w3.org/2000/svg" xmlns:xlink="http://www.w3.org/1999/xlink">
<g id="graph0" class="graph" transform="scale(1 1) rotate(0) translate(4 868.17)">
<title>ER</title>
<polygon fill="white" stroke="transparent" points="-4,4 -4,-868.17 1299.61,-868.17 1299.61,4 -4,4"/>
<text text-anchor="middle" x="647.81" y="-7.8" font-family="Times,serif" font-size="14.00">DATABASE of Collaborative Measurement Network</text>
<!-- name0 -->
<g id="node1" class="node">
<title>name0</title>
<ellipse fill="none" stroke="black" cx="36.4" cy="-547.48" rx="36.29" ry="18"/>
<text text-anchor="start" x="16.4" y="-544.78" font-family="Times,serif" text-decoration="underline" font-size="14.00">name</text>
</g>
<!-- types -->
<g id="node23" class="node">
<title>types</title>
<polygon fill="pink" stroke="pink" points="182.15,-450.67 126.15,-450.67 126.15,-414.67 182.15,-414.67 182.15,-450.67"/>
<text text-anchor="middle" x="154.15" y="-428.97" font-family="Times,serif" font-size="14.00">types</text>
</g>
<!-- name0&#45;&#45;types -->
<g id="edge1" class="edge">
<title>name0&#45;&#45;types</title>
<path fill="none" stroke="black" d="M53.02,-531.27C74.83,-510.01 112.98,-472.8 135.67,-450.68"/>
</g>
<!-- label -->
<g id="node2" class="node">
<title>label</title>
<ellipse fill="none" stroke="black" cx="35.65" cy="-315.2" rx="33.29" ry="18"/>
<text text-anchor="middle" x="35.65" y="-311.5" font-family="Times,serif" font-size="14.00">label</text>
</g>
<!-- label&#45;&#45;types -->
<g id="edge2" class="edge">
<title>label&#45;&#45;types</title>
<path fill="none" stroke="black" d="M51.63,-331.04C73.49,-352.71 112.62,-391.5 135.7,-414.38"/>
</g>
<!-- comment -->
<g id="node3" class="node">
<title>comment</title>
<ellipse fill="none" stroke="black" cx="424.53" cy="-246.06" rx="53.89" ry="18"/>
<text text-anchor="middle" x="424.53" y="-242.36" font-family="Times,serif" font-size="14.00">comment</text>
</g>
<!-- values -->
<g id="node24" class="node">
<title>values</title>
<polygon fill="pink" stroke="pink" points="546.1,-441.76 484.1,-441.76 484.1,-405.76 546.1,-405.76 546.1,-441.76"/>
<text text-anchor="middle" x="515.1" y="-420.06" font-family="Times,serif" font-size="14.00">values</text>
</g>
<!-- comment&#45;&#45;values -->
<g id="edge6" class="edge">
<title>comment&#45;&#45;values</title>
<path fill="none" stroke="black" d="M433.71,-264.08C451.07,-298.14 488.51,-371.6 505.89,-405.7"/>
</g>
<!-- content -->
<g id="node4" class="node">
<title>content</title>
<ellipse fill="none" stroke="black" cx="399.87" cy="-545.3" rx="46.29" ry="18"/>
<text text-anchor="middle" x="399.87" y="-541.6" font-family="Times,serif" font-size="14.00">content</text>
</g>
<!-- content&#45;&#45;values -->
<g id="edge3" class="edge">
<title>content&#45;&#45;values</title>
<path fill="none" stroke="black" d="M415.89,-528.4C437.41,-505.7 475.51,-465.52 497.71,-442.11"/>
</g>
<!-- timestamp -->
<g id="node5" class="node">
<title>timestamp</title>
<ellipse fill="none" stroke="black" cx="506.71" cy="-589.31" rx="60.39" ry="18"/>
<text text-anchor="start" x="468.21" y="-586.61" font-family="Times,serif" text-decoration="underline" font-size="14.00">timestamp</text>
</g>
<!-- timestamp&#45;&#45;values -->
<g id="edge5" class="edge">
<title>timestamp&#45;&#45;values</title>
<path fill="none" stroke="black" d="M507.63,-571.28C509.24,-539.43 512.57,-473.6 514.19,-441.77"/>
</g>
<!-- status -->
<g id="node6" class="node">
<title>status</title>
<ellipse fill="none" stroke="black" cx="758.04" cy="-846.17" rx="51.99" ry="18"/>
<text text-anchor="middle" x="758.04" y="-842.47" font-family="Times,serif" font-size="14.00">last seen</text>
</g>
<!-- gatherers -->
<g id="node25" class="node">
<title>gatherers</title>
<polygon fill="pink" stroke="pink" points="812.08,-693.57 726.08,-693.57 726.08,-657.57 812.08,-657.57 812.08,-693.57"/>
<text text-anchor="middle" x="769.08" y="-671.87" font-family="Times,serif" font-size="14.00">gatherers</text>
</g>
<!-- status&#45;&#45;gatherers -->
<g id="edge7" class="edge">
<title>status&#45;&#45;gatherers</title>
<path fill="none" stroke="black" d="M759.22,-827.91C761.35,-795.08 765.79,-726.43 767.9,-693.69"/>
</g>
<!-- is_standard -->
<g id="node7" class="node">
<title>is_standard</title>
<ellipse fill="none" stroke="black" cx="398.34" cy="-344.44" rx="64.19" ry="18"/>
<text text-anchor="middle" x="398.34" y="-340.74" font-family="Times,serif" font-size="14.00">is_standard</text>
</g>
<!-- is_standard&#45;&#45;values -->
<g id="edge4" class="edge">
<title>is_standard&#45;&#45;values</title>
<path fill="none" stroke="black" d="M423.1,-361.27C442.25,-374.27 468.71,-392.25 488.34,-405.58"/>
</g>
<!-- groupID -->
<g id="node8" class="node">
<title>groupID</title>
<ellipse fill="none" stroke="black" cx="535.23" cy="-282.24" rx="48.99" ry="18"/>
<text text-anchor="middle" x="535.23" y="-278.54" font-family="Times,serif" font-size="14.00">groupID</text>
</g>
<!-- groupID&#45;&#45;values -->
<g id="edge8" class="edge">
<title>groupID&#45;&#45;values</title>
<path fill="none" stroke="black" d="M532.64,-300.45C528.77,-327.63 521.54,-378.49 517.68,-405.62"/>
</g>
<!-- groupPK -->
<g id="node9" class="node">
<title>groupPK</title>
<ellipse fill="none" stroke="black" cx="746.19" cy="-81.28" rx="53.89" ry="18"/>
<text text-anchor="start" x="712.69" y="-78.58" font-family="Times,serif" text-decoration="underline" font-size="14.00">group_pk</text>
</g>
<!-- group_name -->
<g id="node10" class="node">
<title>group_name</title>
<ellipse fill="none" stroke="black" cx="963.81" cy="-149.44" rx="67.69" ry="18"/>
<text text-anchor="middle" x="963.81" y="-145.74" font-family="Times,serif" font-size="14.00">group_name</text>
</g>
<!-- group_description -->
<g id="node11" class="node">
<title>group_description</title>
<ellipse fill="none" stroke="black" cx="903.14" cy="-73" rx="94.78" ry="18"/>
<text text-anchor="middle" x="903.14" y="-69.3" font-family="Times,serif" font-size="14.00">group_description</text>
</g>
<!-- user_name -->
<g id="node12" class="node">
<title>user_name</title>
<ellipse fill="none" stroke="black" cx="1156.65" cy="-657.2" rx="61.19" ry="18"/>
<text text-anchor="start" x="1117.65" y="-654.5" font-family="Times,serif" text-decoration="underline" font-size="14.00">user_name</text>
</g>
<!-- password_hash -->
<g id="node13" class="node">
<title>password_hash</title>
<ellipse fill="none" stroke="black" cx="1214.37" cy="-411.95" rx="81.49" ry="18"/>
<text text-anchor="middle" x="1214.37" y="-408.25" font-family="Times,serif" font-size="14.00">password_hash</text>
</g>
<!-- mail -->
<g id="node14" class="node">
<title>mail</title>
<ellipse fill="none" stroke="black" cx="1231.58" cy="-543.91" rx="30.59" ry="18"/>
<text text-anchor="middle" x="1231.58" y="-540.21" font-family="Times,serif" font-size="14.00">mail</text>
</g>
<!-- references -->
<g id="node15" class="node">
<title>references</title>
<polygon fill="lightgrey" stroke="lightgrey" points="322.89,-460.22 238.26,-442.22 322.89,-424.22 407.51,-442.22 322.89,-460.22"/>
<text text-anchor="middle" x="322.89" y="-438.52" font-family="Times,serif" font-size="14.00">references</text>
</g>
<!-- gathers -->
<g id="node16" class="node">
<title>gathers</title>
<polygon fill="lightgrey" stroke="lightgrey" points="640.43,-577.21 575.41,-559.21 640.43,-541.21 705.46,-559.21 640.43,-577.21"/>
<text text-anchor="middle" x="640.43" y="-555.51" font-family="Times,serif" font-size="14.00">gathers</text>
</g>
<!-- is -->
<g id="node17" class="node">
<title>is</title>
<polygon fill="lightgrey" stroke="lightgrey" points="936.71,-643.8 909.71,-625.8 936.71,-607.8 963.71,-625.8 936.71,-643.8"/>
<text text-anchor="middle" x="936.71" y="-622.1" font-family="Times,serif" font-size="14.00">is</text>
</g>
<!-- user -->
<g id="node21" class="node">
<title>user</title>
<polygon fill="lightblue" stroke="lightblue" points="1097.69,-526.74 1043.69,-526.74 1043.69,-490.74 1097.69,-490.74 1097.69,-526.74"/>
<text text-anchor="middle" x="1070.69" y="-505.04" font-family="Times,serif" font-size="14.00">user</text>
</g>
<!-- is&#45;&#45;user -->
<g id="edge19" class="edge">
<title>is&#45;&#45;user</title>
<path fill="none" stroke="black" d="M948.6,-615.41C971.4,-595.49 1021.52,-551.7 1049.95,-526.87"/>
<text text-anchor="middle" x="994.27" y="-574.94" font-family="Times,serif" font-size="14.00">1</text>
</g>
<!-- is&#45;&#45;gatherers -->
<g id="edge20" class="edge">
<title>is&#45;&#45;gatherers</title>
<path fill="none" stroke="black" d="M917.81,-631.41C892.37,-638.96 846.4,-652.61 812.28,-662.74"/>
<text text-anchor="middle" x="860.04" y="-650.88" font-family="Times,serif" font-size="14.00">n</text>
</g>
<!-- memberships -->
<g id="node18" class="node">
<title>memberships</title>
<polygon fill="lightgrey" stroke="lightgrey" points="971.15,-380.31 867.42,-362.31 971.15,-344.31 1074.88,-362.31 971.15,-380.31"/>
<text text-anchor="middle" x="971.15" y="-358.61" font-family="Times,serif" font-size="14.00">memberships</text>
</g>
<!-- group -->
<g id="node20" class="node">
<title>group</title>
<polygon fill="lightblue" stroke="lightblue" points="861.67,-260.69 802.67,-260.69 802.67,-224.69 861.67,-224.69 861.67,-260.69"/>
<text text-anchor="middle" x="832.17" y="-238.99" font-family="Times,serif" font-size="14.00">group</text>
</g>
<!-- memberships&#45;&#45;group -->
<g id="edge21" class="edge">
<title>memberships&#45;&#45;group</title>
<path fill="none" stroke="black" d="M953.55,-347.16C927.98,-325.16 880.65,-284.42 853.26,-260.84"/>
<text text-anchor="middle" x="898.4" y="-307.8" font-family="Times,serif" font-size="14.00">n</text>
</g>
<!-- memberships&#45;&#45;user -->
<g id="edge22" class="edge">
<title>memberships&#45;&#45;user</title>
<path fill="none" stroke="black" d="M982.18,-378.54C1000.91,-406.09 1038.8,-461.82 1058.37,-490.61"/>
<text text-anchor="middle" x="1013.28" y="-438.38" font-family="Times,serif" font-size="14.00">m</text>
</g>
<!-- published in -->
<g id="node19" class="node">
<title>published in</title>
<polygon fill="lightgrey" stroke="lightgrey" points="673.38,-344.26 577.69,-326.26 673.38,-308.26 769.06,-326.26 673.38,-344.26"/>
<text text-anchor="middle" x="673.38" y="-322.56" font-family="Times,serif" font-size="14.00">published in</text>
</g>
<!-- published in&#45;&#45;group -->
<g id="edge24" class="edge">
<title>published in&#45;&#45;group</title>
<path fill="none" stroke="black" d="M698.89,-312.83C727.21,-297.93 772.84,-273.92 802.67,-258.22"/>
<text text-anchor="middle" x="745.78" y="-289.33" font-family="Times,serif" font-size="14.00">1</text>
</g>
<!-- published in&#45;&#45;values -->
<g id="edge23" class="edge">
<title>published in&#45;&#45;values</title>
<path fill="none" stroke="black" d="M650.7,-340.23C622.75,-357.45 575.19,-386.75 544.47,-405.67"/>
<text text-anchor="middle" x="592.58" y="-376.75" font-family="Times,serif" font-size="14.00">n</text>
</g>
<!-- group&#45;&#45;groupPK -->
<g id="edge13" class="edge">
<title>group&#45;&#45;groupPK</title>
<path fill="none" stroke="black" d="M822.48,-224.49C805.88,-193.32 772.21,-130.12 755.72,-99.17"/>
</g>
<!-- group&#45;&#45;group_name -->
<g id="edge14" class="edge">
<title>group&#45;&#45;group_name</title>
<path fill="none" stroke="black" d="M857.87,-224.49C881.66,-207.63 916.76,-182.76 939.95,-166.34"/>
</g>
<!-- group&#45;&#45;group_description -->
<g id="edge15" class="edge">
<title>group&#45;&#45;group_description</title>
<path fill="none" stroke="black" d="M839.77,-224.53C853.43,-191.87 881.98,-123.59 895.6,-91.03"/>
</g>
<!-- user&#45;&#45;user_name -->
<g id="edge18" class="edge">
<title>user&#45;&#45;user_name</title>
<path fill="none" stroke="black" d="M1081.23,-526.94C1097.82,-555.59 1129.82,-610.86 1146.29,-639.31"/>
</g>
<!-- user&#45;&#45;password_hash -->
<g id="edge16" class="edge">
<title>user&#45;&#45;password_hash</title>
<path fill="none" stroke="black" d="M1097.72,-490.54C1123.89,-472.9 1163.28,-446.37 1188.91,-429.1"/>
</g>
<!-- user&#45;&#45;mail -->
<g id="edge17" class="edge">
<title>user&#45;&#45;mail</title>
<path fill="none" stroke="black" d="M1097.99,-514.71C1127.12,-521.08 1173.1,-531.12 1202.79,-537.62"/>
</g>
<!-- extraindividual Entities -->
<g id="node22" class="node">
<title>extraindividual Entities</title>
<polygon fill="lightblue" stroke="lightblue" points="965,-546 780,-546 780,-510 965,-510 965,-546"/>
<text text-anchor="middle" x="872.5" y="-524.3" font-family="Times,serif" font-size="14.00">extraindividual Entities</text>
</g>
<!-- types&#45;&#45;references -->
<g id="edge9" class="edge">
<title>types&#45;&#45;references</title>
<path fill="none" stroke="black" d="M182.39,-434.26C202.47,-435.4 230.31,-436.98 255.91,-438.43"/>
<text text-anchor="middle" x="214.15" y="-440.15" font-family="Times,serif" font-size="14.00">1</text>
</g>
<!-- values&#45;&#45;references -->
<g id="edge10" class="edge">
<title>values&#45;&#45;references</title>
<path fill="none" stroke="black" d="M483.79,-426.77C456.13,-429.42 415.07,-433.37 381.35,-436.6"/>
<text text-anchor="middle" x="427.57" y="-435.49" font-family="Times,serif" font-size="14.00">n</text>
</g>
<!-- values&#45;&#45;gathers -->
<g id="edge12" class="edge">
<title>values&#45;&#45;gathers</title>
<path fill="none" stroke="black" d="M532,-442.03C557.13,-469.18 603.83,-519.65 626.87,-544.55"/>
<text text-anchor="middle" x="574.43" y="-497.09" font-family="Times,serif" font-size="14.00">n</text>
</g>
<!-- gatherers&#45;&#45;gathers -->
<g id="edge11" class="edge">
<title>gatherers&#45;&#45;gathers</title>
<path fill="none" stroke="black" d="M748.98,-657.39C723.25,-634.12 679.25,-594.32 655.95,-573.25"/>
<text text-anchor="middle" x="697.46" y="-619.12" font-family="Times,serif" font-size="14.00">1</text>
</g>
<!-- individual Entities -->
<g id="node26" class="node">
<title>individual Entities</title>
<polygon fill="pink" stroke="pink" points="668,-741 520,-741 520,-705 668,-705 668,-741"/>
<text text-anchor="middle" x="594" y="-719.3" font-family="Times,serif" font-size="14.00">individual Entities</text>
</g>
</g>
</svg>
