<?xml version="1.0" encoding="UTF-8" standalone="no"?>
<!DOCTYPE svg PUBLIC "-//W3C//DTD SVG 1.1//EN"
 "http://www.w3.org/Graphics/SVG/1.1/DTD/svg11.dtd">
<!-- Generated by graphviz version 2.43.0 (0)
 -->
<!-- Title: ER Pages: 1 -->
<svg width="1440pt" height="1182pt"
 viewBox="0.00 0.00 1440.46 1181.75" xmlns="http://www.w3.org/2000/svg" xmlns:xlink="http://www.w3.org/1999/xlink">
<g id="graph0" class="graph" transform="scale(1 1) rotate(0) translate(4 1177.75)">
<title>ER</title>
<polygon fill="white" stroke="transparent" points="-4,4 -4,-1177.75 1436.46,-1177.75 1436.46,4 -4,4"/>
<text text-anchor="middle" x="716.23" y="-7.8" font-family="Times,serif" font-size="14.00">DATABASE of Collaborative Measurement Network</text>
<!-- UserID -->
<g id="node1" class="node">
<title>UserID</title>
<ellipse fill="none" stroke="black" cx="124.63" cy="-224.23" rx="44.39" ry="18"/>
<text text-anchor="start" x="98.63" y="-221.53" font-family="Times,serif" text-decoration="underline" font-size="14.00">UserID</text>
</g>
<!-- interpretation -->
<g id="node2" class="node">
<title>interpretation</title>
<ellipse fill="none" stroke="black" cx="1356.41" cy="-959.96" rx="76.09" ry="18"/>
<text text-anchor="middle" x="1356.41" y="-956.26" font-family="Times,serif" font-size="14.00">interpretation</text>
</g>
<!-- id -->
<g id="node3" class="node">
<title>id</title>
<ellipse fill="none" stroke="black" cx="1348.94" cy="-783.49" rx="27" ry="18"/>
<text text-anchor="start" x="1341.94" y="-780.79" font-family="Times,serif" text-decoration="underline" font-size="14.00">id</text>
</g>
<!-- name0 -->
<g id="node4" class="node">
<title>name0</title>
<ellipse fill="none" stroke="black" cx="1061.52" cy="-1155.75" rx="36.29" ry="18"/>
<text text-anchor="middle" x="1061.52" y="-1152.05" font-family="Times,serif" font-size="14.00">name</text>
</g>
<!-- label -->
<g id="node5" class="node">
<title>label</title>
<ellipse fill="none" stroke="black" cx="1231.76" cy="-1122.34" rx="33.29" ry="18"/>
<text text-anchor="middle" x="1231.76" y="-1118.64" font-family="Times,serif" font-size="14.00">label</text>
</g>
<!-- comment -->
<g id="node6" class="node">
<title>comment</title>
<ellipse fill="none" stroke="black" cx="730.1" cy="-786.19" rx="53.89" ry="18"/>
<text text-anchor="middle" x="730.1" y="-782.49" font-family="Times,serif" font-size="14.00">comment</text>
</g>
<!-- values -->
<g id="node26" class="node">
<title>values</title>
<polygon fill="pink" stroke="pink" points="779.82,-603.89 717.82,-603.89 717.82,-567.89 779.82,-567.89 779.82,-603.89"/>
<text text-anchor="middle" x="748.82" y="-582.19" font-family="Times,serif" font-size="14.00">values</text>
</g>
<!-- comment&#45;&#45;values -->
<g id="edge4" class="edge">
<title>comment&#45;&#45;values</title>
<path fill="none" stroke="black" d="M731.79,-768.06C735.35,-730.02 743.55,-642.25 747.11,-604.12"/>
</g>
<!-- content -->
<g id="node7" class="node">
<title>content</title>
<ellipse fill="none" stroke="black" cx="775.17" cy="-391.17" rx="46.29" ry="18"/>
<text text-anchor="middle" x="775.17" y="-387.47" font-family="Times,serif" font-size="14.00">content</text>
</g>
<!-- content&#45;&#45;values -->
<g id="edge1" class="edge">
<title>content&#45;&#45;values</title>
<path fill="none" stroke="black" d="M772.69,-409.49C767.65,-446.7 756.28,-530.72 751.27,-567.76"/>
</g>
<!-- timestamp -->
<g id="node8" class="node">
<title>timestamp</title>
<ellipse fill="none" stroke="black" cx="928.91" cy="-588.61" rx="60.39" ry="18"/>
<text text-anchor="start" x="890.41" y="-585.91" font-family="Times,serif" text-decoration="underline" font-size="14.00">timestamp</text>
</g>
<!-- timestamp&#45;&#45;values -->
<g id="edge3" class="edge">
<title>timestamp&#45;&#45;values</title>
<path fill="none" stroke="black" d="M868.44,-587.7C838.7,-587.25 804.13,-586.73 779.82,-586.36"/>
</g>
<!-- status -->
<g id="node9" class="node">
<title>status</title>
<ellipse fill="none" stroke="black" cx="222.64" cy="-117.78" rx="51.99" ry="18"/>
<text text-anchor="middle" x="222.64" y="-114.08" font-family="Times,serif" font-size="14.00">last seen</text>
</g>
<!-- user -->
<g id="node23" class="node">
<title>user</title>
<polygon fill="lightblue" stroke="lightblue" points="380.25,-334.19 301.25,-334.19 301.25,-298.19 380.25,-298.19 380.25,-334.19"/>
<text text-anchor="middle" x="340.75" y="-312.49" font-family="Times,serif" font-size="14.00">gatherer</text>
</g>
<!-- status&#45;&#45;user -->
<g id="edge5" class="edge">
<title>status&#45;&#45;user</title>
<path fill="none" stroke="black" d="M233.33,-135.74C255.76,-173.42 307.52,-260.36 330,-298.13"/>
</g>
<!-- is_standard -->
<g id="node10" class="node">
<title>is_standard</title>
<ellipse fill="none" stroke="black" cx="963.99" cy="-457.11" rx="64.19" ry="18"/>
<text text-anchor="middle" x="963.99" y="-453.41" font-family="Times,serif" font-size="14.00">is_standard</text>
</g>
<!-- is_standard&#45;&#45;values -->
<g id="edge2" class="edge">
<title>is_standard&#45;&#45;values</title>
<path fill="none" stroke="black" d="M936.74,-473.42C896.37,-497.58 820.93,-542.73 778.96,-567.85"/>
</g>
<!-- groupID -->
<g id="node11" class="node">
<title>groupID</title>
<ellipse fill="none" stroke="black" cx="888.06" cy="-353.83" rx="48.99" ry="18"/>
<text text-anchor="middle" x="888.06" y="-350.13" font-family="Times,serif" font-size="14.00">groupID</text>
</g>
<!-- groupID&#45;&#45;values -->
<g id="edge6" class="edge">
<title>groupID&#45;&#45;values</title>
<path fill="none" stroke="black" d="M877.36,-371.65C851.51,-414.74 785.83,-524.21 759.74,-567.68"/>
</g>
<!-- groupPK -->
<g id="node12" class="node">
<title>groupPK</title>
<ellipse fill="none" stroke="black" cx="147.98" cy="-938.19" rx="53.89" ry="18"/>
<text text-anchor="start" x="114.48" y="-935.49" font-family="Times,serif" text-decoration="underline" font-size="14.00">group_pk</text>
</g>
<!-- group_name -->
<g id="node13" class="node">
<title>group_name</title>
<ellipse fill="none" stroke="black" cx="67.59" cy="-789.41" rx="67.69" ry="18"/>
<text text-anchor="middle" x="67.59" y="-785.71" font-family="Times,serif" font-size="14.00">group_name</text>
</g>
<!-- group_description -->
<g id="node14" class="node">
<title>group_description</title>
<ellipse fill="none" stroke="black" cx="301.11" cy="-1003.06" rx="94.78" ry="18"/>
<text text-anchor="middle" x="301.11" y="-999.36" font-family="Times,serif" font-size="14.00">group_description</text>
</g>
<!-- user_name -->
<g id="node15" class="node">
<title>user_name</title>
<ellipse fill="none" stroke="black" cx="108.02" cy="-358.02" rx="61.19" ry="18"/>
<text text-anchor="middle" x="108.02" y="-354.32" font-family="Times,serif" font-size="14.00">user_name</text>
</g>
<!-- password_hash -->
<g id="node16" class="node">
<title>password_hash</title>
<ellipse fill="none" stroke="black" cx="356.8" cy="-73" rx="81.49" ry="18"/>
<text text-anchor="middle" x="356.8" y="-69.3" font-family="Times,serif" font-size="14.00">password_hash</text>
</g>
<!-- mail -->
<g id="node17" class="node">
<title>mail</title>
<ellipse fill="none" stroke="black" cx="476.22" cy="-117" rx="30.59" ry="18"/>
<text text-anchor="middle" x="476.22" y="-113.3" font-family="Times,serif" font-size="14.00">mail</text>
</g>
<!-- references -->
<g id="node18" class="node">
<title>references</title>
<polygon fill="lightgrey" stroke="lightgrey" points="939.5,-795.24 854.87,-777.24 939.5,-759.24 1024.12,-777.24 939.5,-795.24"/>
<text text-anchor="middle" x="939.5" y="-773.54" font-family="Times,serif" font-size="14.00">references</text>
</g>
<!-- gathers -->
<g id="node19" class="node">
<title>gathers</title>
<polygon fill="lightgrey" stroke="lightgrey" points="560.13,-443.02 495.11,-425.02 560.13,-407.02 625.15,-425.02 560.13,-443.02"/>
<text text-anchor="middle" x="560.13" y="-421.32" font-family="Times,serif" font-size="14.00">gathers</text>
</g>
<!-- memberships -->
<g id="node20" class="node">
<title>memberships</title>
<polygon fill="lightgrey" stroke="lightgrey" points="233.68,-555.78 129.95,-537.78 233.68,-519.78 337.41,-537.78 233.68,-555.78"/>
<text text-anchor="middle" x="233.68" y="-534.08" font-family="Times,serif" font-size="14.00">memberships</text>
</g>
<!-- group -->
<g id="node22" class="node">
<title>group</title>
<polygon fill="lightblue" stroke="lightblue" points="333.47,-784.46 274.47,-784.46 274.47,-748.46 333.47,-748.46 333.47,-784.46"/>
<text text-anchor="middle" x="303.97" y="-762.76" font-family="Times,serif" font-size="14.00">group</text>
</g>
<!-- memberships&#45;&#45;group -->
<g id="edge22" class="edge">
<title>memberships&#45;&#45;group</title>
<path fill="none" stroke="black" d="M238.97,-554.97C251.93,-597.14 285.21,-705.42 298.43,-748.45"/>
<text text-anchor="middle" x="263.7" y="-655.51" font-family="Times,serif" font-size="14.00">n</text>
</g>
<!-- memberships&#45;&#45;user -->
<g id="edge23" class="edge">
<title>memberships&#45;&#45;user</title>
<path fill="none" stroke="black" d="M241.73,-521.12C261.38,-480.46 311.67,-376.37 332.01,-334.27"/>
<text text-anchor="middle" x="279.87" y="-431.49" font-family="Times,serif" font-size="14.00">m</text>
</g>
<!-- published in -->
<g id="node21" class="node">
<title>published in</title>
<polygon fill="lightgrey" stroke="lightgrey" points="545.21,-756.07 449.52,-738.07 545.21,-720.07 640.89,-738.07 545.21,-756.07"/>
<text text-anchor="middle" x="545.21" y="-734.37" font-family="Times,serif" font-size="14.00">published in</text>
</g>
<!-- published in&#45;&#45;group -->
<g id="edge25" class="edge">
<title>published in&#45;&#45;group</title>
<path fill="none" stroke="black" d="M486.2,-745.02C437.93,-750.7 371.68,-758.5 333.8,-762.95"/>
<text text-anchor="middle" x="405" y="-757.79" font-family="Times,serif" font-size="14.00">1</text>
</g>
<!-- published in&#45;&#45;values -->
<g id="edge24" class="edge">
<title>published in&#45;&#45;values</title>
<path fill="none" stroke="black" d="M564.73,-723.48C602.16,-695.51 683.89,-634.42 724.67,-603.94"/>
<text text-anchor="middle" x="639.7" y="-667.51" font-family="Times,serif" font-size="14.00">n</text>
</g>
<!-- group&#45;&#45;groupPK -->
<g id="edge15" class="edge">
<title>group&#45;&#45;groupPK</title>
<path fill="none" stroke="black" d="M287.57,-784.52C257.38,-817.76 193.37,-888.22 163.69,-920.89"/>
</g>
<!-- group&#45;&#45;group_name -->
<g id="edge16" class="edge">
<title>group&#45;&#45;group_name</title>
<path fill="none" stroke="black" d="M274.04,-769.37C238.38,-772.83 177.83,-778.71 131.5,-783.21"/>
</g>
<!-- group&#45;&#45;group_description -->
<g id="edge17" class="edge">
<title>group&#45;&#45;group_description</title>
<path fill="none" stroke="black" d="M303.75,-784.64C303.22,-828.68 301.86,-940.72 301.33,-984.82"/>
</g>
<!-- user&#45;&#45;UserID -->
<g id="edge21" class="edge">
<title>user&#45;&#45;UserID</title>
<path fill="none" stroke="black" d="M301.11,-299.32C259.07,-281.43 193.55,-253.56 155.29,-237.28"/>
</g>
<!-- user&#45;&#45;user_name -->
<g id="edge20" class="edge">
<title>user&#45;&#45;user_name</title>
<path fill="none" stroke="black" d="M301.01,-323.33C262.19,-330.31 202.89,-340.96 160.27,-348.62"/>
</g>
<!-- user&#45;&#45;password_hash -->
<g id="edge18" class="edge">
<title>user&#45;&#45;password_hash</title>
<path fill="none" stroke="black" d="M341.96,-297.91C344.94,-252.73 352.63,-136.21 355.6,-91.16"/>
</g>
<!-- user&#45;&#45;mail -->
<g id="edge19" class="edge">
<title>user&#45;&#45;mail</title>
<path fill="none" stroke="black" d="M353.01,-298.16C379.06,-259.85 439.61,-170.83 464.85,-133.72"/>
</g>
<!-- user&#45;&#45;gathers -->
<g id="edge9" class="edge">
<title>user&#45;&#45;gathers</title>
<path fill="none" stroke="black" d="M377.47,-334.4C422.84,-356.91 498.71,-394.55 536.8,-413.45"/>
<text text-anchor="middle" x="452.14" y="-377.73" font-family="Times,serif" font-size="14.00">1</text>
</g>
<!-- extraindividual Entities -->
<g id="node24" class="node">
<title>extraindividual Entities</title>
<polygon fill="lightblue" stroke="lightblue" points="1212,-328 1027,-328 1027,-292 1212,-292 1212,-328"/>
<text text-anchor="middle" x="1119.5" y="-306.3" font-family="Times,serif" font-size="14.00">extraindividual Entities</text>
</g>
<!-- types -->
<g id="node25" class="node">
<title>types</title>
<polygon fill="pink" stroke="pink" points="1163.97,-936.79 1107.97,-936.79 1107.97,-900.79 1163.97,-900.79 1163.97,-936.79"/>
<text text-anchor="middle" x="1135.97" y="-915.09" font-family="Times,serif" font-size="14.00">types</text>
</g>
<!-- types&#45;&#45;interpretation -->
<g id="edge14" class="edge">
<title>types&#45;&#45;interpretation</title>
<path fill="none" stroke="black" d="M1164.34,-924.09C1197.6,-930.3 1253.63,-940.76 1296.62,-948.79"/>
</g>
<!-- types&#45;&#45;id -->
<g id="edge13" class="edge">
<title>types&#45;&#45;id</title>
<path fill="none" stroke="black" d="M1164.25,-900.82C1208.04,-873 1291.15,-820.2 1329.12,-796.08"/>
</g>
<!-- types&#45;&#45;name0 -->
<g id="edge12" class="edge">
<title>types&#45;&#45;name0</title>
<path fill="none" stroke="black" d="M1130.25,-936.99C1116.36,-981.21 1080.96,-1093.87 1067.16,-1137.81"/>
</g>
<!-- types&#45;&#45;label -->
<g id="edge11" class="edge">
<title>types&#45;&#45;label</title>
<path fill="none" stroke="black" d="M1144.47,-936.85C1162.74,-975.68 1205.54,-1066.64 1223.55,-1104.9"/>
</g>
<!-- types&#45;&#45;references -->
<g id="edge7" class="edge">
<title>types&#45;&#45;references</title>
<path fill="none" stroke="black" d="M1110.69,-900.57C1070.99,-871.98 994.89,-817.15 959.06,-791.34"/>
<text text-anchor="middle" x="1029.88" y="-849.76" font-family="Times,serif" font-size="14.00">1</text>
</g>
<!-- values&#45;&#45;references -->
<g id="edge8" class="edge">
<title>values&#45;&#45;references</title>
<path fill="none" stroke="black" d="M766.76,-603.89C804.21,-641.48 890.11,-727.68 924.68,-762.37"/>
<text text-anchor="middle" x="840.72" y="-686.93" font-family="Times,serif" font-size="14.00">n</text>
</g>
<!-- values&#45;&#45;gathers -->
<g id="edge10" class="edge">
<title>values&#45;&#45;gathers</title>
<path fill="none" stroke="black" d="M727.54,-567.75C689.37,-535.21 610.1,-467.63 576.14,-438.67"/>
<text text-anchor="middle" x="646.84" y="-507.01" font-family="Times,serif" font-size="14.00">n</text>
</g>
<!-- individual Entities -->
<g id="node27" class="node">
<title>individual Entities</title>
<polygon fill="pink" stroke="pink" points="622,-644 474,-644 474,-608 622,-608 622,-644"/>
<text text-anchor="middle" x="548" y="-622.3" font-family="Times,serif" font-size="14.00">individual Entities</text>
</g>
</g>
</svg>
