<?xml version="1.0" encoding="UTF-8" standalone="no"?>
<!DOCTYPE svg PUBLIC "-//W3C//DTD SVG 1.1//EN"
 "http://www.w3.org/Graphics/SVG/1.1/DTD/svg11.dtd">
<!-- Generated by graphviz version 2.43.0 (0)
 -->
<!-- Title: G Pages: 1 -->
<svg width="1618pt" height="379pt"
 viewBox="0.00 0.00 1618.00 379.00" xmlns="http://www.w3.org/2000/svg" xmlns:xlink="http://www.w3.org/1999/xlink">
<g id="graph0" class="graph" transform="scale(1 1) rotate(0) translate(4 375)">
<title>G</title>
<g id="clust1" class="cluster">
<title>cluster_0</title>
<polygon fill="lightgrey" stroke="lightgrey" points="569,-65 569,-147 699,-147 699,-65 569,-65"/>
<text text-anchor="middle" x="634" y="-127" font-family="Handlee" font-size="20.00">*controller*</text>
</g>
<g id="clust2" class="cluster">
<title>cluster_1</title>
<polygon fill="transparent" stroke="green" points="718,-65 718,-363 1290,-363 1290,-65 718,-65"/>
<text text-anchor="middle" x="1004" y="-343" font-family="Handlee" font-size="20.00">*/models*</text>
</g>
<g id="clust3" class="cluster">
<title>cluster_2</title>
<polygon fill="transparent" stroke="blue" points="8,-180 8,-262 710,-262 710,-180 8,-180"/>
<text text-anchor="middle" x="359" y="-242" font-family="Handlee" font-size="20.00">*/views*</text>
</g>
<g id="clust4" class="cluster">
<title>cluster_3</title>
<polygon fill="transparent" stroke="red" points="1298,-65 1298,-147 1602,-147 1602,-65 1298,-65"/>
<text text-anchor="middle" x="1450" y="-127" font-family="Handlee" font-size="20.00">*sqlite*</text>
</g>
<!-- c0 -->
<g id="node1" class="node">
<title>c0</title>
<ellipse fill="pink" stroke="pink" cx="634" cy="-91" rx="55.79" ry="18"/>
<text text-anchor="middle" x="634" y="-87.3" font-family="Handlee" font-size="14.00">index.php</text>
</g>
<!-- m1 -->
<g id="node3" class="node">
<title>m1</title>
<ellipse fill="lightgrey" stroke="black" cx="1230" cy="-91" rx="51.99" ry="18"/>
<text text-anchor="middle" x="1230" y="-87.3" font-family="Handlee" font-size="14.00">Chat.php</text>
</g>
<!-- c0&#45;&gt;m1 -->
<g id="edge5" class="edge">
<title>c0&#45;&gt;m1</title>
<path fill="none" stroke="black" d="M648.59,-108.44C664.68,-126.2 692.39,-152.61 723,-163.5 768.75,-179.77 1115.31,-182.47 1160,-163.5 1182.22,-154.07 1200.82,-133.75 1213.25,-117.01"/>
<polygon fill="black" stroke="black" points="1216.24,-118.85 1219.17,-108.67 1210.53,-114.8 1216.24,-118.85"/>
</g>
<!-- m2 -->
<g id="node4" class="node">
<title>m2</title>
<ellipse fill="lightgrey" stroke="black" cx="941" cy="-91" rx="61.19" ry="18"/>
<text text-anchor="middle" x="941" y="-87.3" font-family="Handlee" font-size="14.00">Charts.php</text>
</g>
<!-- c0&#45;&gt;m2 -->
<g id="edge8" class="edge">
<title>c0&#45;&gt;m2</title>
<path fill="none" stroke="black" d="M648.59,-108.44C664.68,-126.2 692.39,-152.61 723,-163.5 781.2,-184.21 804.43,-185.91 862,-163.5 886.15,-154.1 907.4,-133.48 921.76,-116.63"/>
<polygon fill="black" stroke="black" points="924.6,-118.67 928.24,-108.72 919.19,-114.24 924.6,-118.67"/>
</g>
<!-- m3 -->
<g id="node5" class="node">
<title>m3</title>
<ellipse fill="lightgrey" stroke="black" cx="794" cy="-91" rx="68.49" ry="18"/>
<text text-anchor="middle" x="794" y="-87.3" font-family="Handlee" font-size="14.00">Settings.php</text>
</g>
<!-- c0&#45;&gt;m3 -->
<g id="edge11" class="edge">
<title>c0&#45;&gt;m3</title>
<path fill="none" stroke="black" d="M689.94,-91C698.51,-91 707.08,-91 715.65,-91"/>
<polygon fill="black" stroke="black" points="715.71,-94.5 725.71,-91 715.71,-87.5 715.71,-94.5"/>
</g>
<!-- m4 -->
<g id="node6" class="node">
<title>m4</title>
<ellipse fill="lightgrey" stroke="black" cx="1090" cy="-206" rx="73.39" ry="18"/>
<text text-anchor="middle" x="1090" y="-202.3" font-family="Handlee" font-size="14.00">UserData.php</text>
</g>
<!-- c0&#45;&gt;m4 -->
<g id="edge33" class="edge">
<title>c0&#45;&gt;m4</title>
<path fill="none" stroke="black" d="M651.53,-108.14C666.8,-121.13 690.17,-138.56 714,-147 756.87,-162.18 771.7,-144.76 816,-155 833.69,-159.09 836.46,-165.3 854,-170 905.81,-183.87 965.6,-192.67 1012.03,-197.97"/>
<polygon fill="black" stroke="black" points="1011.7,-201.45 1022.02,-199.08 1012.47,-194.5 1011.7,-201.45"/>
<text text-anchor="middle" x="904" y="-158.8" font-family="Handlee" font-size="14.00">authentication</text>
</g>
<!-- m5 -->
<g id="node7" class="node">
<title>m5</title>
<ellipse fill="lightgrey" stroke="black" cx="1090" cy="-91" rx="70.39" ry="18"/>
<text text-anchor="middle" x="1090" y="-87.3" font-family="Handlee" font-size="14.00">UserSQL.php</text>
</g>
<!-- c0&#45;&gt;m5 -->
<g id="edge14" class="edge">
<title>c0&#45;&gt;m5</title>
<path fill="none" stroke="black" d="M648.59,-108.44C664.68,-126.2 692.39,-152.61 723,-163.5 781.41,-184.28 943.64,-184.44 1002,-163.5 1028.17,-154.11 1052.12,-133.19 1068.4,-116.23"/>
<polygon fill="black" stroke="black" points="1071.09,-118.48 1075.33,-108.77 1065.96,-113.71 1071.09,-118.48"/>
</g>
<!-- start -->
<g id="node16" class="node">
<title>start</title>
<polygon fill="none" stroke="black" points="634,-36 592.78,-18 634,0 675.22,-18 634,-36"/>
<polyline fill="none" stroke="black" points="603.77,-22.8 603.77,-13.2 "/>
<polyline fill="none" stroke="black" points="623,-4.8 645,-4.8 "/>
<polyline fill="none" stroke="black" points="664.23,-13.2 664.23,-22.8 "/>
<polyline fill="none" stroke="black" points="645,-31.2 623,-31.2 "/>
<text text-anchor="middle" x="634" y="-14.3" font-family="Handlee" font-size="14.00">http</text>
</g>
<!-- c0&#45;&gt;start -->
<g id="edge2" class="edge">
<title>c0&#45;&gt;start</title>
<path fill="none" stroke="black" d="M634,-72.81C634,-64.79 634,-55.05 634,-46.07"/>
<polygon fill="black" stroke="black" points="637.5,-46.03 634,-36.03 630.5,-46.03 637.5,-46.03"/>
</g>
<!-- m0 -->
<g id="node2" class="node">
<title>m0</title>
<ellipse fill="lightgrey" stroke="black" cx="1090" cy="-307" rx="55.79" ry="18"/>
<text text-anchor="middle" x="1090" y="-303.3" font-family="Handlee" font-size="14.00">Menu.php</text>
</g>
<!-- m0&#45;&gt;m4 -->
<g id="edge17" class="edge">
<title>m0&#45;&gt;m4</title>
<path fill="none" stroke="black" d="M1084.73,-288.76C1083.09,-273.71 1082.81,-251.62 1083.9,-234.19"/>
<polygon fill="black" stroke="black" points="1087.4,-234.31 1084.75,-224.05 1080.43,-233.72 1087.4,-234.31"/>
</g>
<!-- v0 -->
<g id="node8" class="node">
<title>v0</title>
<ellipse fill="lightgrey" stroke="black" cx="72" cy="-206" rx="55.79" ry="18"/>
<text text-anchor="middle" x="72" y="-202.3" font-family="Handlee" font-size="14.00">Menu.php</text>
</g>
<!-- m0&#45;&gt;v0 -->
<g id="edge3" class="edge">
<title>m0&#45;&gt;v0</title>
<path fill="none" stroke="black" d="M1034.23,-305.51C842.91,-303.56 220.35,-294.73 137,-262 120.18,-255.4 104.61,-242.56 92.92,-230.95"/>
<polygon fill="black" stroke="black" points="95.28,-228.36 85.83,-223.57 90.24,-233.21 95.28,-228.36"/>
</g>
<!-- m1&#45;&gt;m4 -->
<g id="edge19" class="edge">
<title>m1&#45;&gt;m4</title>
<path fill="none" stroke="black" d="M1219.92,-108.85C1209.31,-120 1193.04,-134.75 1178,-147 1162.42,-159.69 1144.39,-173.02 1128.62,-183.7"/>
<polygon fill="black" stroke="black" points="1126.51,-180.89 1120.11,-189.33 1130.38,-186.72 1126.51,-180.89"/>
</g>
<!-- v1 -->
<g id="node9" class="node">
<title>v1</title>
<ellipse fill="lightgrey" stroke="black" cx="650" cy="-206" rx="51.99" ry="18"/>
<text text-anchor="middle" x="650" y="-202.3" font-family="Handlee" font-size="14.00">Chat.php</text>
</g>
<!-- m1&#45;&gt;v1 -->
<g id="edge6" class="edge">
<title>m1&#45;&gt;v1</title>
<path fill="none" stroke="black" d="M1216.87,-108.5C1205.64,-121.34 1188.26,-138.37 1169,-147 1147.48,-156.64 981.52,-168.24 958,-170 903.88,-174.05 767.11,-168.86 714,-180 705.78,-181.72 697.25,-184.39 689.19,-187.35"/>
<polygon fill="black" stroke="black" points="687.7,-184.17 679.65,-191.06 690.24,-190.69 687.7,-184.17"/>
</g>
<!-- m2&#45;&gt;m4 -->
<g id="edge21" class="edge">
<title>m2&#45;&gt;m4</title>
<path fill="none" stroke="black" d="M967.68,-107.34C983.17,-118.47 1002.65,-133.82 1020,-147 1035.37,-158.68 1052.63,-171.4 1066.31,-181.94"/>
<polygon fill="black" stroke="black" points="1064.28,-184.79 1074.31,-188.19 1068.59,-179.28 1064.28,-184.79"/>
</g>
<!-- v2 -->
<g id="node10" class="node">
<title>v2</title>
<ellipse fill="lightgrey" stroke="black" cx="361" cy="-206" rx="61.19" ry="18"/>
<text text-anchor="middle" x="361" y="-202.3" font-family="Handlee" font-size="14.00">Charts.php</text>
</g>
<!-- m2&#45;&gt;v2 -->
<g id="edge9" class="edge">
<title>m2&#45;&gt;v2</title>
<path fill="none" stroke="black" d="M925.88,-108.68C912.81,-121.8 892.65,-139.14 871,-147 843.52,-156.98 636.61,-148.97 608,-155 590.64,-158.66 588.28,-165.99 571,-170 510.24,-184.11 492.05,-167.17 431,-180 422.19,-181.85 412.99,-184.55 404.25,-187.5"/>
<polygon fill="black" stroke="black" points="402.9,-184.26 394.64,-190.9 405.24,-190.86 402.9,-184.26"/>
</g>
<!-- m3&#45;&gt;m4 -->
<g id="edge23" class="edge">
<title>m3&#45;&gt;m4</title>
<path fill="none" stroke="black" d="M817.98,-108.06C834.44,-121.01 856.9,-138.41 880,-147 916.4,-160.53 929.17,-146.27 967,-155 997.25,-161.98 1029.88,-174.3 1054.05,-184.96"/>
<polygon fill="black" stroke="black" points="1052.64,-188.17 1063.2,-189.1 1055.53,-181.79 1052.64,-188.17"/>
</g>
<!-- v3 -->
<g id="node11" class="node">
<title>v3</title>
<ellipse fill="lightgrey" stroke="black" cx="214" cy="-206" rx="68.49" ry="18"/>
<text text-anchor="middle" x="214" y="-202.3" font-family="Handlee" font-size="14.00">Settings.php</text>
</g>
<!-- m3&#45;&gt;v3 -->
<g id="edge12" class="edge">
<title>m3&#45;&gt;v3</title>
<path fill="none" stroke="black" d="M773.71,-108.24C756.13,-121.29 729.44,-138.76 703,-147 674.94,-155.74 600.31,-152.8 571,-155 508.7,-159.67 352.21,-167.5 291,-180 281.19,-182 270.87,-184.83 261.1,-187.86"/>
<polygon fill="black" stroke="black" points="259.98,-184.55 251.54,-190.94 262.13,-191.21 259.98,-184.55"/>
</g>
<!-- m4&#45;&gt;c0 -->
<g id="edge34" class="edge">
<title>m4&#45;&gt;c0</title>
<path fill="none" stroke="black" d="M1017.04,-203.53C924.71,-200.73 771.51,-192.72 720,-170 693.29,-158.22 669.28,-134.8 653.46,-116.69"/>
<polygon fill="black" stroke="black" points="655.92,-114.18 646.79,-108.8 650.57,-118.7 655.92,-114.18"/>
<text text-anchor="middle" x="766" y="-158.8" font-family="Handlee" font-size="14.00">authorisation</text>
</g>
<!-- m4&#45;&gt;m0 -->
<g id="edge18" class="edge">
<title>m4&#45;&gt;m0</title>
<path fill="none" stroke="black" d="M1095.25,-224.05C1096.9,-239.03 1097.19,-261.11 1096.11,-278.58"/>
<polygon fill="black" stroke="black" points="1092.61,-278.5 1095.27,-288.76 1099.58,-279.08 1092.61,-278.5"/>
</g>
<!-- m4&#45;&gt;m1 -->
<g id="edge20" class="edge">
<title>m4&#45;&gt;m1</title>
<path fill="none" stroke="black" d="M1106.32,-188.35C1120.88,-177.07 1142.06,-161.61 1160,-147 1172.97,-136.44 1186.86,-124.01 1198.97,-113.64"/>
<polygon fill="black" stroke="black" points="1201.26,-116.29 1206.65,-107.16 1196.75,-110.94 1201.26,-116.29"/>
</g>
<!-- m4&#45;&gt;m2 -->
<g id="edge22" class="edge">
<title>m4&#45;&gt;m2</title>
<path fill="none" stroke="black" d="M1060.94,-189.43C1043.44,-177.86 1021.24,-161.61 1002,-147 988.5,-136.75 973.72,-125.18 961.94,-115.31"/>
<polygon fill="black" stroke="black" points="964.19,-112.63 954.32,-108.79 959.64,-117.95 964.19,-112.63"/>
</g>
<!-- m4&#45;&gt;m3 -->
<g id="edge24" class="edge">
<title>m4&#45;&gt;m3</title>
<path fill="none" stroke="black" d="M1051.8,-190.52C1023.72,-178.91 984.7,-163.24 949,-155 911.17,-146.27 898.4,-160.53 862,-147 843.26,-140.03 824.93,-127.25 811.82,-115.77"/>
<polygon fill="black" stroke="black" points="814.09,-113.09 804.38,-108.84 809.32,-118.22 814.09,-113.09"/>
</g>
<!-- m4&#45;&gt;m5 -->
<g id="edge26" class="edge">
<title>m4&#45;&gt;m5</title>
<path fill="none" stroke="black" d="M1084.99,-187.84C1083.01,-169.67 1082.72,-140.72 1084.12,-119.39"/>
<polygon fill="black" stroke="black" points="1087.62,-119.58 1084.97,-109.32 1080.64,-118.99 1087.62,-119.58"/>
</g>
<!-- u0 -->
<g id="node13" class="node">
<title>u0</title>
<path fill="lightgrey" stroke="black" d="M1386,-105.73C1386,-107.53 1368.07,-109 1346,-109 1323.93,-109 1306,-107.53 1306,-105.73 1306,-105.73 1306,-76.27 1306,-76.27 1306,-74.47 1323.93,-73 1346,-73 1368.07,-73 1386,-74.47 1386,-76.27 1386,-76.27 1386,-105.73 1386,-105.73"/>
<path fill="none" stroke="black" d="M1386,-105.73C1386,-103.92 1368.07,-102.45 1346,-102.45 1323.93,-102.45 1306,-103.92 1306,-105.73"/>
<text text-anchor="middle" x="1346" y="-87.3" font-family="Handlee" font-size="14.00">Bob&#39;s DB</text>
</g>
<!-- m4&#45;&gt;u0 -->
<g id="edge28" class="edge">
<title>m4&#45;&gt;u0</title>
<path fill="none" stroke="black" d="M1135.36,-191.71C1170.43,-181.49 1220.23,-167.12 1264,-155 1277.3,-151.32 1282.14,-154.06 1294,-147 1306.87,-139.34 1318.58,-127.6 1327.62,-116.93"/>
<polygon fill="black" stroke="black" points="1330.42,-119.04 1333.99,-109.07 1324.97,-114.64 1330.42,-119.04"/>
</g>
<!-- u1 -->
<g id="node14" class="node">
<title>u1</title>
<path fill="lightgrey" stroke="black" d="M1497.5,-105.73C1497.5,-107.53 1476.66,-109 1451,-109 1425.34,-109 1404.5,-107.53 1404.5,-105.73 1404.5,-105.73 1404.5,-76.27 1404.5,-76.27 1404.5,-74.47 1425.34,-73 1451,-73 1476.66,-73 1497.5,-74.47 1497.5,-76.27 1497.5,-76.27 1497.5,-105.73 1497.5,-105.73"/>
<path fill="none" stroke="black" d="M1497.5,-105.73C1497.5,-103.92 1476.66,-102.45 1451,-102.45 1425.34,-102.45 1404.5,-103.92 1404.5,-105.73"/>
<text text-anchor="middle" x="1451" y="-87.3" font-family="Handlee" font-size="14.00">Alices&#39;s DB</text>
</g>
<!-- m4&#45;&gt;u1 -->
<g id="edge30" class="edge">
<title>m4&#45;&gt;u1</title>
<path fill="none" stroke="black" d="M1162.83,-203.43C1227.35,-199.28 1322.31,-186.24 1395,-147 1408.89,-139.5 1421.68,-127.52 1431.52,-116.65"/>
<polygon fill="black" stroke="black" points="1434.23,-118.87 1438.14,-109.02 1428.94,-114.28 1434.23,-118.87"/>
</g>
<!-- u2 -->
<g id="node15" class="node">
<title>u2</title>
<path fill="lightgrey" stroke="black" d="M1594,-105.73C1594,-107.53 1576.52,-109 1555,-109 1533.48,-109 1516,-107.53 1516,-105.73 1516,-105.73 1516,-76.27 1516,-76.27 1516,-74.47 1533.48,-73 1555,-73 1576.52,-73 1594,-74.47 1594,-76.27 1594,-76.27 1594,-105.73 1594,-105.73"/>
<path fill="none" stroke="black" d="M1594,-105.73C1594,-103.92 1576.52,-102.45 1555,-102.45 1533.48,-102.45 1516,-103.92 1516,-105.73"/>
<text text-anchor="middle" x="1555" y="-87.3" font-family="Handlee" font-size="14.00">Eve&#39;s DB</text>
</g>
<!-- m4&#45;&gt;u2 -->
<g id="edge32" class="edge">
<title>m4&#45;&gt;u2</title>
<path fill="none" stroke="black" d="M1161.9,-201.91C1265.54,-196.31 1450.67,-181.67 1507,-147 1519.18,-139.5 1529.95,-127.93 1538.18,-117.33"/>
<polygon fill="black" stroke="black" points="1541.11,-119.26 1544.22,-109.14 1535.47,-115.11 1541.11,-119.26"/>
</g>
<!-- m5&#45;&gt;m4 -->
<g id="edge25" class="edge">
<title>m5&#45;&gt;m4</title>
<path fill="none" stroke="black" d="M1095.03,-109.32C1097,-127.56 1097.28,-156.51 1095.87,-177.79"/>
<polygon fill="black" stroke="black" points="1092.37,-177.58 1095.01,-187.84 1099.35,-178.17 1092.37,-177.58"/>
</g>
<!-- v5 -->
<g id="node12" class="node">
<title>v5</title>
<ellipse fill="lightgrey" stroke="black" cx="510" cy="-206" rx="70.39" ry="18"/>
<text text-anchor="middle" x="510" y="-202.3" font-family="Handlee" font-size="14.00">UserSQL.php</text>
</g>
<!-- m5&#45;&gt;v5 -->
<g id="edge15" class="edge">
<title>m5&#45;&gt;v5</title>
<path fill="none" stroke="black" d="M1072.84,-108.47C1057.85,-121.65 1034.82,-139.19 1011,-147 977.31,-158.04 727.15,-150.35 692,-155 645.98,-161.09 595.15,-175.76 558.93,-187.64"/>
<polygon fill="black" stroke="black" points="557.5,-184.42 549.12,-190.9 559.72,-191.07 557.5,-184.42"/>
</g>
<!-- v0&#45;&gt;c0 -->
<g id="edge4" class="edge">
<title>v0&#45;&gt;c0</title>
<path fill="none" stroke="black" d="M104.32,-191.16C114.63,-187.14 126.17,-183.01 137,-180 290.75,-137.25 477.26,-110.79 572.12,-99.08"/>
<polygon fill="black" stroke="black" points="572.62,-102.54 582.12,-97.85 571.77,-95.59 572.62,-102.54"/>
</g>
<!-- v1&#45;&gt;c0 -->
<g id="edge7" class="edge">
<title>v1&#45;&gt;c0</title>
<path fill="none" stroke="black" d="M647.57,-187.84C645,-169.67 640.9,-140.72 637.88,-119.39"/>
<polygon fill="black" stroke="black" points="641.32,-118.73 636.45,-109.32 634.39,-119.72 641.32,-118.73"/>
</g>
<!-- v2&#45;&gt;c0 -->
<g id="edge10" class="edge">
<title>v2&#45;&gt;c0</title>
<path fill="none" stroke="black" d="M395.02,-190.92C444.78,-170.32 537.34,-132.01 591.51,-109.59"/>
<polygon fill="black" stroke="black" points="592.93,-112.79 600.83,-105.73 590.25,-106.32 592.93,-112.79"/>
</g>
<!-- v3&#45;&gt;c0 -->
<g id="edge13" class="edge">
<title>v3&#45;&gt;c0</title>
<path fill="none" stroke="black" d="M254.21,-191.42C266.02,-187.57 278.99,-183.49 291,-180 392.5,-150.53 512.37,-120.96 580.16,-104.71"/>
<polygon fill="black" stroke="black" points="581.26,-108.04 590.18,-102.31 579.64,-101.23 581.26,-108.04"/>
</g>
<!-- v5&#45;&gt;c0 -->
<g id="edge16" class="edge">
<title>v5&#45;&gt;c0</title>
<path fill="none" stroke="black" d="M528.03,-188.57C549.27,-169.21 584.7,-136.92 608.69,-115.06"/>
<polygon fill="black" stroke="black" points="611.32,-117.41 616.35,-108.09 606.6,-112.23 611.32,-117.41"/>
</g>
<!-- u0&#45;&gt;m4 -->
<g id="edge27" class="edge">
<title>u0&#45;&gt;m4</title>
<path fill="none" stroke="black" d="M1333.73,-109.14C1319.36,-127.72 1293.7,-156.51 1264,-170 1233.87,-183.68 1198.41,-192.04 1167.38,-197.14"/>
<polygon fill="black" stroke="black" points="1166.82,-193.69 1157.48,-198.68 1167.9,-200.6 1166.82,-193.69"/>
</g>
<!-- u1&#45;&gt;m4 -->
<g id="edge29" class="edge">
<title>u1&#45;&gt;m4</title>
<path fill="none" stroke="black" d="M1443.58,-109.28C1434.68,-127.7 1417.92,-156.08 1394,-170 1357.64,-191.17 1249.9,-199.54 1173.03,-202.85"/>
<polygon fill="black" stroke="black" points="1172.72,-199.36 1162.87,-203.26 1173,-206.35 1172.72,-199.36"/>
</g>
<!-- u2&#45;&gt;m4 -->
<g id="edge31" class="edge">
<title>u2&#45;&gt;m4</title>
<path fill="none" stroke="black" d="M1549.29,-109.03C1542.1,-127.51 1527.87,-156.22 1505,-170 1477.27,-186.71 1285.23,-197.17 1172.35,-201.95"/>
<polygon fill="black" stroke="black" points="1172.2,-198.45 1162.35,-202.36 1172.49,-205.44 1172.2,-198.45"/>
</g>
<!-- start&#45;&gt;c0 -->
<g id="edge1" class="edge">
<title>start&#45;&gt;c0</title>
<path fill="none" stroke="black" d="M634,-36.03C634,-44.03 634,-53.77 634,-62.75"/>
<polygon fill="black" stroke="black" points="630.5,-62.81 634,-72.81 637.5,-62.81 630.5,-62.81"/>
</g>
</g>
</svg>
